<?xml version="1.0" encoding="UTF-8"?><svg xmlns="http://www.w3.org/2000/svg" viewBox="0 0 363.21 353.43"><defs><style>.b{fill:#fff;}.c{fill:#f15a29;}.d{fill:#f19529;}.e{isolation:isolate;}.f{opacity:.13;}.f,.g,.h{mix-blend-mode:multiply;}.g{opacity:.25;}.i{fill:#ff2900;}.j{fill:#ffc200;}.k{fill:#231f20;}</style></defs><g class="e"><g id="a"><g><g><g><g><g><path class="i" d="M148.31,43.71c-.41,.13-.82,.25-1.23,.37-11.86,3.49-24.56,4.16-36.72,1.94-7.3-1.33-14.18-3.46-21.4-1.68-2.77-2.03-4.3-5.58-4.03-9,.06-.73,.19-1.45,.42-2.14,.27-.83,.68-1.67,1.41-2.17,1.04-.73,2.51-.53,3.6,.13,1.08,.67,1.85,1.73,2.56,2.78,.57-9.44,5.33-19.88,12.76-25.74,3.86-3.04,8.4-5.17,13.17-6.29,4.42-1.04,9.06-1.21,13.55-.42,.64,2.47-1.28,4.81-3.05,6.64-4.15,4.31-8.32,8.62-12.47,12.92,4.5-2.5,10.72-4.79,15.75-5.91,4.19-.94,8.88-1.29,12.52,.98,.58,.36,1.15,.83,1.34,1.48,.34,1.16-.63,2.27-1.56,3.04-7.12,5.95-16.48,8.31-25.5,10.51,7.59-.82,15.33-.22,22.7,1.77,3.49,.94,7.1,2.35,9.2,5.28,.41,.57,.76,1.23,.8,1.94,0,.05,0,.1,0,.14-.01,1.84-2.07,2.87-3.83,3.42Z"/><path class="k" d="M124.6,48.31c-4.84,0-9.67-.43-14.42-1.3-1.33-.24-2.64-.51-3.94-.78-5.84-1.19-11.35-2.32-17.03-.92-.29,.07-.59,.01-.83-.16-3-2.2-4.74-6.07-4.44-9.88,.06-.83,.22-1.63,.46-2.38,.4-1.25,.99-2.13,1.79-2.68,1.28-.89,3.12-.85,4.69,.1,.48,.3,.9,.66,1.29,1.05,1.24-9.42,6.14-18.62,12.89-23.95,3.91-3.08,8.6-5.32,13.56-6.48,4.59-1.08,9.42-1.23,13.95-.43,.39,.07,.7,.35,.79,.73,.75,2.89-1.25,5.46-3.3,7.58-2.64,2.74-5.28,5.47-7.92,8.21l-.67,.7c3.54-1.49,7.45-2.78,10.93-3.56,5.69-1.28,10.03-.91,13.27,1.11,.62,.39,1.47,1.02,1.77,2.04,.4,1.35-.23,2.72-1.88,4.1-5,4.18-11.07,6.63-17.14,8.42,4.71,.18,9.38,.89,13.96,2.13,3.28,.88,7.36,2.32,9.75,5.66,.4,.56,.93,1.43,.98,2.47,0,.05,.01,.15,0,.25,0,1.29-.8,3.15-4.53,4.31h0c-.41,.13-.82,.25-1.24,.38-7.38,2.17-15.07,3.27-22.76,3.27Zm-29.79-5.65c3.94,0,7.81,.79,11.82,1.61,1.29,.26,2.59,.53,3.9,.77,12.01,2.2,24.55,1.54,36.26-1.91,.41-.12,.82-.25,1.22-.37,1.17-.37,3.12-1.17,3.12-2.47-.02-.48-.22-.93-.62-1.49-2.02-2.82-5.68-4.09-8.65-4.89-7.29-1.97-14.81-2.56-22.34-1.75-.52,.06-1-.3-1.09-.82-.09-.52,.24-1.02,.75-1.14,8.44-2.06,18.01-4.39,25.09-10.31,.55-.46,1.44-1.33,1.24-1.99-.08-.28-.38-.58-.92-.92-2.77-1.73-6.62-2.01-11.77-.85-5.12,1.14-11.19,3.42-15.48,5.81-.44,.24-.98,.13-1.28-.26s-.27-.95,.07-1.3l4.55-4.72c2.64-2.73,5.28-5.47,7.92-8.21,1.49-1.54,2.96-3.33,2.89-5.08-4.06-.62-8.35-.44-12.44,.53-4.69,1.1-9.11,3.21-12.79,6.1-6.82,5.38-11.8,15.43-12.38,25.02-.03,.43-.32,.79-.73,.9-.41,.11-.85-.05-1.09-.4-.68-.99-1.37-1.93-2.27-2.5-.69-.43-1.78-.66-2.5-.16-.43,.3-.77,.83-1.03,1.65-.19,.6-.32,1.24-.37,1.92-.23,2.98,1.04,6,3.27,7.84,1.9-.43,3.77-.6,5.62-.6Zm53.5,1.05h0Z"/></g><g class="g"><path class="k" d="M147.07,44.08c-11.86,3.49-24.56,4.16-36.72,1.94-7.3-1.33-14.18-3.46-21.4-1.68-2.77-2.03-4.3-5.58-4.03-9,.06-.73,.19-1.45,.42-2.14,.27-.83,.68-1.67,1.41-2.17,1.04-.73,2.51-.53,3.6,.13,1.08,.67,1.85,1.73,2.56,2.78,.57-9.44,5.33-19.88,12.76-25.74,3.86-3.04,8.4-5.17,13.17-6.29-6.72,3.32-12.52,8.52-16.44,14.92-2.21,3.6-3.87,7.88-2.91,12,1.25,5.4,6.61,8.86,11.94,10.41,9.64,2.82,19.97,1.2,29.98,2.04,2.21,.18,4.85,.84,5.67,2.81Z"/></g></g><path class="b" d="M107.05,11.31c-.2,0-.39-.06-.57-.18-.46-.31-.57-.94-.26-1.39,3.19-4.64,8.73-6.57,14.6-8.29,.53-.16,1.09,.15,1.24,.68s-.15,1.09-.68,1.24c-5.51,1.61-10.69,3.4-13.51,7.5-.19,.28-.51,.43-.83,.43Z"/><path class="b" d="M135.81,17.6c-.34,0-.67-.17-.86-.48-.29-.47-.14-1.09,.33-1.37,2.23-1.35,5.09-1.54,7.47-.49,.51,.22,.74,.81,.51,1.32-.22,.51-.81,.74-1.32,.51-1.8-.79-3.95-.65-5.63,.37-.16,.1-.34,.15-.52,.15Z"/></g><g><path class="j" d="M63.55,240.56l-38.55,13.61s-17.01,8.31-18.14,16.63c-.43,3.12,.16,5.86,1.06,8.08,1.46,3.6,5.49,5.43,9.22,4.35l6.35-1.84-10.2-1.51-2.27-9.83,8.31-6.43s-2.65,6.8-1.89,9.83c.39,1.57,3.02,3.85,5.46,5.68,2.58,1.94,5.96,2.42,8.99,1.3l5.59-2.07-9.83-.76-5.67-6.43,2.65-7.18,4.54,8.31s6.01,1.77,7.18,1.51c3.4-.76,6.05-7.56,6.05-7.56l-9.83,3.02-4.16-8.31,43.09-14.74-7.94-5.67Z"/><path class="k" d="M14.92,284.54c-3.43,0-6.61-2.01-7.94-5.29-1.14-2.81-1.51-5.7-1.12-8.59,1.19-8.74,17.98-17.04,18.69-17.39,.04-.02,.07-.03,.11-.04l38.55-13.61c.31-.11,.65-.06,.91,.13l7.94,5.67c.3,.22,.46,.59,.41,.96-.05,.37-.31,.68-.67,.8l-42,14.37,3.27,6.53,9.02-2.77c.36-.11,.76,0,1.03,.28,.26,.28,.34,.69,.2,1.04-.29,.75-2.95,7.33-6.76,8.17-1.28,.29-5.8-.97-7.68-1.53-.25-.07-.47-.25-.6-.48l-3.48-6.38-1.68,4.55,5.01,5.67,9.42,.72c.47,.04,.85,.39,.91,.86s-.2,.91-.64,1.08l-5.58,2.07c-2.56,.95-5.33,.86-7.77-.19,0,.04,.01,.09,.02,.14,.03,.47-.27,.9-.72,1.03l-6.35,1.84c-.83,.24-1.67,.36-2.49,.36Zm10.47-29.45c-1,.5-16.52,8.36-17.54,15.84-.35,2.54-.01,5.09,.99,7.57,1.26,3.11,4.7,4.72,8.02,3.76l1.95-.57-5.67-.84c-.41-.06-.74-.36-.83-.76l-2.27-9.83c-.09-.38,.05-.78,.36-1.02l8.32-6.42c.35-.28,.85-.28,1.21,0,.36,.27,.5,.74,.33,1.16-.7,1.81-2.41,7-1.85,9.22,.12,.48,.86,1.94,5.09,5.12,2.31,1.74,5.32,2.17,8.04,1.17l1.31-.48-5.28-.41c-.26-.02-.5-.14-.67-.33l-5.67-6.42c-.24-.28-.32-.66-.19-1.01l2.65-7.18c.14-.37,.47-.62,.87-.65,.38-.04,.76,.17,.95,.52l4.34,7.95c2.62,.76,5.67,1.47,6.3,1.38,1.68-.37,3.36-2.94,4.41-4.97l-7.69,2.37c-.47,.14-.97-.07-1.19-.51l-4.16-8.32c-.13-.26-.14-.56-.03-.83,.11-.27,.33-.47,.6-.57l41.25-14.11-5.93-4.24-38,13.41Zm-11.28,23.89l8.68,1.29c-.17-.11-.33-.22-.49-.34-5.26-3.95-5.69-5.67-5.83-6.24-.48-1.91,.18-4.94,.86-7.26l-5.2,4.01,1.97,8.54Z"/></g><g><path class="j" d="M115.7,304.25l-7.37-6.24v-10.2l-9.07,6.8v6.8l-40.44,22.64-1.52,.61-34.5-.17c-2.29-.01-4.56,.48-6.64,1.44l-13.28,6.11,17.57-3.78,31.18-.76-19.1,4.77c-3.85,.96-7.43,2.77-10.49,5.3l-11.8,9.76,19.28-10.02,23.81-5.86-11.98,6.19c-3.68,1.9-6.89,4.6-9.4,7.89l-5.26,6.9,13.42-10.2,26.83-14.74,34.58-.57-28.49-4.52,34.72-18.72,7.94,.57Z"/><path class="k" d="M26.7,353.43c-.26,0-.51-.1-.71-.29-.35-.35-.39-.92-.09-1.31l5.26-6.9c2.58-3.39,5.95-6.22,9.74-8.17l4.46-2.3-15.48,3.81-19.17,9.96c-.46,.24-1.01,.09-1.29-.33-.28-.43-.2-1,.2-1.32l11.8-9.76c3.15-2.61,6.92-4.51,10.88-5.5l10.34-2.59-22.07,.53-17.48,3.76c-.49,.11-1-.18-1.16-.66-.16-.48,.07-1.01,.53-1.22l13.28-6.11c2.17-1,4.59-1.53,6.98-1.53h.08l34.31,.17,1.27-.51,39.87-22.32v-6.22c0-.31,.15-.61,.4-.8l9.07-6.8c.3-.23,.71-.26,1.05-.09,.34,.17,.55,.52,.55,.89v9.74l7.02,5.94c.33,.28,.44,.74,.28,1.14-.16,.4-.55,.66-1,.62l-7.65-.55-31.86,17.18,25.57,4.06c.51,.08,.88,.54,.84,1.06-.04,.52-.46,.92-.98,.93l-34.33,.56-26.55,14.58-13.36,10.16c-.18,.14-.39,.2-.61,.2Zm26.65-22.98c.41,0,.79,.25,.94,.65,.18,.47-.03,1.01-.48,1.24l-11.98,6.19c-3.53,1.82-6.66,4.45-9.07,7.61l-.79,1.03,7.54-5.74s.08-.06,.12-.08l26.83-14.74c.14-.08,.3-.12,.46-.12l23.11-.38-17.15-2.72c-.42-.07-.76-.4-.83-.82-.07-.42,.13-.84,.51-1.05l34.72-18.72c.17-.09,.36-.13,.55-.12l4.88,.35-5.03-4.26c-.22-.19-.35-.47-.35-.76v-8.21l-7.07,5.3v6.3c0,.36-.2,.7-.51,.87l-40.44,22.64s-.08,.04-.12,.06l-1.52,.61c-.12,.05-.23,.09-.38,.07l-34.5-.17c-2.17-.02-4.28,.46-6.22,1.34l-5.02,2.31,8.69-1.87c.06-.01,.12-.02,.19-.02l31.18-.76h.02c.5,0,.92,.37,.99,.87,.07,.5-.25,.98-.75,1.1l-19.1,4.77c-3.68,.92-7.17,2.69-10.09,5.1l-4.56,3.77,10.94-5.68c.07-.04,.14-.06,.22-.08l23.81-5.86c.08-.02,.16-.03,.24-.03Z"/></g><g><path class="b" d="M63.35,224.86c-.48-.24-16.17-8.28-31.68-19.64C16.25,193.93,1,179.36,1,165.91c0-16.54,11.52-21.77,20.56-23.33,1.02-.18,2.01-.31,2.95-.4,1.18-.12,2.27-.18,3.24-.2,1.22-.03,2.25-.01,3,.02,.91,.04,1.43,.1,1.43,.1l1.77,4.71,1.97,5.21,19.74,52.42,7.69,20.42Z"/><path class="k" d="M63.35,225.86c-.15,0-.3-.03-.45-.1-.15-.08-15.99-8.13-31.83-19.73C10.46,190.93,0,177.43,0,165.91c0-17.05,11.63-22.63,21.39-24.32,.99-.17,2-.31,3.02-.41,1.11-.11,2.23-.18,3.32-.2,1.04-.03,2.08-.02,3.06,.02,.96,.04,1.5,.1,1.5,.1,.37,.04,.69,.29,.82,.64l31.17,82.76c.15,.38,.04,.82-.27,1.09-.19,.17-.43,.26-.67,.26ZM28.95,142.97c-.36,0-.76,0-1.18,.01-1.04,.02-2.1,.09-3.16,.2-.97,.09-1.94,.22-2.88,.39-9,1.55-19.73,6.69-19.73,22.35,0,10.69,10.46,24.01,30.26,38.5,12.15,8.9,24.29,15.69,29.23,18.34l-30.02-79.71c-.21-.01-.46-.03-.76-.04-.43-.02-1.03-.03-1.75-.03Z"/></g><g><path class="b" d="M157.18,189.16c0,5.71-25.04,39.1-35.74,53.78-.97,1.32-1.82,2.5-2.52,3.48-4.39,6.13-11.33,10.46-17.96,12.51-3.9,1.21-7.7,1.64-10.8,1.17-1.85-.27-3.46-.86-4.69-1.78-17.05-11.48-39.22-31.71-53.8-53.1-9.19-13.46-15.37-27.38-15.37-39.87,0-3.41,.47-6.62,1.31-9.63h.01c1.4-5.06,3.85-9.56,6.89-13.54,.94-1.22,1.93-2.39,2.97-3.51,12.63-13.77,31.73-20.38,33.61-21.51,0,0,32.64-11.39,35.72-2.84,2.76,7.68,5.61,15.9,8.78,23.98,6.65,16.98,14.68,33.28,26.08,42.35,11.02,8.76,25.51,6.04,25.51,8.51Z"/><path class="k" d="M92.79,261.29c-.97,0-1.9-.07-2.78-.2-2.07-.3-3.8-.96-5.14-1.97-15.04-10.13-38.25-30.2-54.03-53.34-10.31-15.11-15.54-28.71-15.54-40.43,0-3.37,.45-6.7,1.35-9.9,0-.04,.02-.07,.04-.11,1.34-4.78,3.71-9.42,7.03-13.77,.96-1.24,1.97-2.44,3.03-3.58,10.7-11.67,25.99-18.26,31.74-20.74,.99-.43,1.84-.79,2.09-.94,.06-.04,.12-.06,.19-.09,3.44-1.2,33.67-11.45,36.99-2.23,.6,1.66,1.2,3.34,1.8,5.04,2.21,6.19,4.49,12.59,6.97,18.91,5.68,14.49,13.73,32.35,25.77,41.93,6.78,5.39,15.12,6.31,20.1,6.86,3.61,.4,5.78,.64,5.78,2.43,0,4.97-15.68,26.76-31.75,48.66-1.54,2.1-2.96,4.03-4.18,5.71-.97,1.32-1.82,2.5-2.51,3.47-4.19,5.85-10.93,10.55-18.48,12.88-3,.93-5.87,1.4-8.46,1.4ZM18.54,156.09c-.83,3-1.25,6.11-1.25,9.26,0,11.31,5.11,24.54,15.2,39.31,15.61,22.91,38.6,42.78,53.53,52.83,1.11,.83,2.54,1.37,4.28,1.62,2.9,.44,6.58,.04,10.36-1.14,7.04-2.18,13.56-6.71,17.44-12.14,.7-.98,1.55-2.17,2.53-3.49,1.22-1.68,2.64-3.61,4.18-5.71,10.81-14.73,30.8-41.98,31.35-47.27-.57-.28-2.38-.47-3.99-.65-5.2-.57-13.9-1.53-21.13-7.28-12.41-9.88-20.62-28.04-26.39-42.77-2.49-6.35-4.78-12.77-6.99-18.97-.61-1.7-1.21-3.38-1.8-5.04-1.99-5.54-22.1-.85-34.36,3.42-.39,.22-1.11,.52-2.23,1.01-5.65,2.44-20.65,8.91-31.06,20.26-1.02,1.1-2,2.26-2.92,3.44-3.19,4.18-5.45,8.61-6.72,13.19-.01,.04-.02,.07-.04,.11Z"/></g><g><path class="b" d="M163.15,217.87c-10.41-.33-22.25-2.99-31.62-7.42,4.57,6.21,9.88,11.89,15.77,16.87-13.14-1.41-26.38-7.36-35.82-16.6,1.05,3.43,2.8,6.65,5.11,9.4-.74-.88-5.77-1.14-7.04-1.47-2.33-.6-4.64-1.31-6.89-2.16-4.44-1.67-8.71-3.87-12.45-6.8-19.14-14.97-22.2-53.04,2.92-62.87,.64-.26,1.3-.5,1.98-.71,7.38-2.32,12.79-1.69,18.76,3.23,5.96,4.93,9.25,12.27,12.79,19.15,9.44,18.38,21.99,35.16,36.96,49.4-.16,0-.31-.01-.47-.02Z"/><path class="k" d="M147.3,228.32s-.07,0-.11,0c-12.19-1.31-24.06-6.33-33.19-13.97,.91,1.84,2.04,3.57,3.35,5.13h0c.36,.43,.3,1.06-.12,1.41-.42,.35-1.05,.3-1.41-.12-.45-.32-3.05-.65-4.3-.81-.98-.12-1.75-.22-2.22-.34-2.48-.64-4.83-1.37-6.99-2.19-4.91-1.85-9.19-4.19-12.71-6.95-11.08-8.67-17.29-25.23-15.09-40.28,1.72-11.74,8.2-20.37,18.26-24.31,.69-.28,1.38-.53,2.05-.73,7.99-2.51,13.7-1.52,19.69,3.41,5.46,4.52,8.72,10.95,11.88,17.17,.39,.77,.78,1.53,1.17,2.29,9.44,18.38,21.81,34.91,36.76,49.13,.3,.28,.39,.72,.24,1.1-.15,.38-.52,.63-.93,.63-.17,0-.33,0-.5-.02h0c-9.47-.3-19.81-2.49-28.44-5.96,3.96,4.96,8.42,9.54,13.27,13.64,.34,.28,.45,.75,.27,1.16-.16,.37-.52,.61-.92,.61Zm-35.82-18.6c.25,0,.51,.1,.7,.29,8.39,8.21,19.89,13.9,31.96,15.88-4.95-4.48-9.46-9.46-13.41-14.84-.27-.37-.26-.88,.03-1.23,.29-.35,.78-.46,1.2-.27,8.38,3.96,19.09,6.61,29.06,7.22-14.26-13.96-26.11-30.03-35.25-47.82-.39-.76-.78-1.53-1.17-2.3-3.06-6.04-6.22-12.28-11.37-16.54-5.47-4.5-10.46-5.36-17.82-3.05-.62,.19-1.26,.42-1.9,.68-9.37,3.67-15.41,11.74-17.02,22.74-2.1,14.37,3.79,30.17,14.34,38.41,3.37,2.64,7.46,4.88,12.19,6.65,2.1,.79,4.38,1.51,6.79,2.13,.34,.09,1.13,.19,1.97,.29,.84,.1,1.57,.2,2.2,.3-1.49-2.24-2.66-4.71-3.44-7.26-.13-.44,.05-.91,.44-1.15,.16-.1,.34-.15,.52-.15Z"/></g><g><path class="b" d="M122.89,235.08s-.52,3.08-1.45,7.86c-3.27,16.92-11.58,55.13-19.53,53.37-.52-.12-1.03-.36-1.51-.73-5.22-3.92-8.44-21.4-10.24-35.48-1.31-10.31-1.86-18.79-1.86-18.79"/><path class="k" d="M102.45,297.37c-.25,0-.5-.03-.75-.08-.68-.16-1.32-.46-1.9-.91-4.4-3.3-7.98-15.47-10.62-36.15-1.3-10.22-1.86-18.77-1.87-18.85-.04-.55,.38-1.03,.93-1.06,.53-.02,1.03,.38,1.06,.93,0,.08,.56,8.57,1.85,18.73,2.5,19.55,6,31.92,9.85,34.81,.36,.28,.74,.46,1.13,.55,.45,.1,.94-.02,1.48-.38,4.84-3.18,11.14-22.7,16.84-52.21,.92-4.71,1.44-7.81,1.45-7.84,.09-.54,.59-.91,1.15-.82,.54,.09,.91,.61,.82,1.15,0,.03-.53,3.15-1.46,7.88-3.46,17.91-10.36,48.67-17.71,53.5-.75,.49-1.51,.74-2.26,.74Z"/></g><g><path class="j" d="M38.22,256.81s9.83,10.2,11.34,15.12c1.51-4.16-4.91-18.9-4.91-18.9"/><path class="k" d="M49.56,272.93h-.03c-.43-.01-.8-.29-.93-.71-1.42-4.63-11.01-14.62-11.1-14.72-.38-.4-.37-1.03,.03-1.41,.4-.38,1.03-.37,1.41,.03,.32,.33,6.24,6.5,9.57,11.62-.79-4.2-3.05-10.34-4.78-14.3-.22-.51,.01-1.1,.52-1.32,.51-.22,1.1,.01,1.32,.52,.67,1.55,6.54,15.23,4.94,19.64-.14,.4-.52,.66-.94,.66Z"/></g><path class="k" d="M11.11,173.17c-2.55,0-5.09-1.05-6.81-2.99-.37-.41-.33-1.04,.08-1.41,.41-.37,1.04-.33,1.41,.08,1.97,2.22,5.48,2.95,8.17,1.7,.5-.23,1.1-.01,1.33,.49,.23,.5,.01,1.1-.49,1.33-1.17,.54-2.44,.8-3.7,.8Z"/><g><path class="d" d="M272.18,240.18c-17.01-15.12-46.87-51.4-79.75-51.4,22.68,24.57,27.59,40.06,26.08,65.76-30.99-58.58-61.99-58.58-64.63-58.58-.09-.72-.44-1.76-.99-2.9-1.36-2.85-3.97-6.34-6.96-7.06-.65-.16-1.31-.18-1.99-.05-.21,.04-.43,.1-.64,.18,0,0-.2-.29-.53-.85-3.81-6.33-25.3-46.87,24.71-82.3-2.26,1.89-9.44,24.57-6.42,31,3.4-6.43,29.86-87.31,119.81-68.04-2.11,.44-4.38,.87-6.8,1.33-18.5,3.48-45.34,8.43-69.72,32.65-3.55,3.52-7.05,7.45-10.46,11.85-1.39,1.78-2.76,3.64-4.11,5.58,1.31-.67,2.62-1.32,3.93-1.96,36.36-17.58,70.85-20.77,100.77-1.07-7.94,1.14-70.3-5.67-103.94,27.97,49.51-11.72,79.37-5.29,119.43,28.35-23.78-6.8-75.84-24.9-114.37,.28-.05,.02-.1,.06-.15,.09h.11c1.9-.05,3.83-.02,5.77,.08,24.65,1.23,51.51,13.95,64.35,44.67,3,7.14,5.23,15.25,6.5,24.42Z"/><path class="k" d="M218.51,255.54c-.37,0-.71-.2-.88-.53-29.23-55.25-58.23-58.05-63.75-58.05-.5,0-.93-.38-.99-.88-.08-.61-.41-1.58-.9-2.59-1.25-2.61-3.64-5.88-6.29-6.52-.52-.13-1.04-.14-1.57-.04-.15,.03-.32,.07-.47,.13-.43,.16-.92,.01-1.18-.37,0,0-.21-.31-.57-.91-1.97-3.27-8.37-15.18-7.97-30.77,.52-19.95,11.61-37.73,32.96-52.85,.44-.31,1.04-.22,1.37,.21,.33,.43,.26,1.03-.15,1.38-1.66,1.39-7.35,18.9-6.76,27.09,3.38-7.92,12.28-28.69,30.81-45.41,23.47-21.18,53.38-28.06,88.9-20.46,.46,.1,.79,.51,.79,.98,0,.47-.33,.88-.8,.98-2.04,.43-4.24,.84-6.58,1.29l-.52,.1c-18.94,3.56-44.88,8.44-68.92,32.32-3.63,3.6-7.12,7.55-10.38,11.75-.58,.74-1.15,1.49-1.72,2.26,.1-.05,.21-.1,.31-.15,39.52-19.11,73.75-19.44,101.76-1.01,.35,.23,.52,.65,.43,1.05-.09,.41-.42,.71-.83,.77-1.33,.19-3.86,.17-7.67,.15-17.94-.12-64.69-.46-93.06,25.04,48.21-10.73,78.06-3.09,116.73,29.38,.36,.3,.46,.82,.24,1.23-.22,.42-.7,.62-1.16,.49-1.67-.48-3.48-1.01-5.42-1.58-24.73-7.29-70.21-20.69-105.3-.02,.79,.02,1.6,.05,2.41,.09,29.6,1.48,53.99,18.41,65.22,45.28,3.12,7.42,5.33,15.72,6.57,24.67,.06,.42-.15,.82-.52,1.02-.37,.2-.82,.15-1.14-.13-3.07-2.73-6.62-6.2-10.37-9.88-17.26-16.91-40.72-39.88-66.39-41.21,20.5,22.65,26.32,38.09,24.75,64.76-.03,.45-.35,.82-.79,.92-.07,.01-.14,.02-.21,.02Zm-63.81-60.56c7.2,.3,35,4.93,62.98,55.91,.82-24.51-5.61-39.36-25.98-61.43-.27-.29-.34-.72-.18-1.08,.16-.36,.52-.6,.92-.6,27.39,0,52.08,24.18,70.11,41.84,2.91,2.85,5.7,5.58,8.23,7.93-1.27-7.72-3.29-14.91-6.01-21.4-15.75-37.69-49.64-43.37-63.48-44.06-1.95-.1-3.87-.13-5.69-.08h-.14c-.45,0-.85-.3-.96-.74s.07-.9,.46-1.12c.04-.03,.09-.06,.16-.1,36.21-23.62,84.04-9.52,109.74-1.95,.25,.07,.5,.15,.74,.22-37.25-30.14-66.81-36.42-114.81-25.06-.44,.1-.89-.1-1.1-.49-.22-.39-.15-.88,.17-1.19,28.61-28.61,78.38-28.26,97.13-28.13,1.66,.01,3.11,.02,4.3,.01-26.88-16.29-59.53-15.35-97.12,2.82-1.3,.64-2.61,1.28-3.91,1.95-.41,.21-.91,.11-1.21-.23-.3-.35-.33-.85-.07-1.23,1.35-1.95,2.75-3.84,4.14-5.62,3.31-4.27,6.85-8.29,10.54-11.94,24.48-24.32,51.85-29.46,69.96-32.87l.52-.1c.53-.1,1.05-.2,1.57-.3-51.39-9.15-90.24,13.51-112.53,65.77-.55,1.29-.94,2.21-1.22,2.74-.18,.33-.53,.57-.91,.53-.38,0-.72-.23-.88-.57-2.55-5.43,1.41-20.61,4.46-28.08-18.55,14.17-28.2,30.55-28.67,48.74-.39,15.05,5.78,26.53,7.68,29.7,.04,.07,.08,.14,.12,.2h0c.81-.16,1.62-.13,2.42,.06,3.33,.8,6.12,4.45,7.62,7.6,.41,.85,.72,1.65,.91,2.35Z"/></g><g><path class="c" d="M338.09,80.17c-19.79-7.06-41.89-2.68-60.84,6.38-4.37,2.09-8.64,4.46-13.3,5.8-2.11,.61-4.27,1-6.45,1.24-3.45,.38-6.96,.4-10.45,.36-.68,0-1.35-.02-2.03-.03,.27-.07,.55-.14,.82-.22,15.12-4.03,30.84-11.23,43.88-19.77,2.24-1.47,4.68-3.43,4.66-6.11-.01-2.26-1.9-4.15-4.01-4.95-2.12-.81-4.44-.77-6.7-.85-4.23-.14-8.44-.7-12.55-1.67,4.55-.56,8.93-2.51,12.39-5.51-4.83-2.94-10.9-3.16-16.46-2.14-5.57,1.02-10.86,3.16-16.31,4.69-7.41,2.07-15.13,3-22.81,2.75,3.74-2.97,5.88-5.96,9.37-9.23,1.6-1.5,3.25-4.01,1.79-5.65-1.06-1.19-2.96-.88-4.47-.42-17.56,5.32-31.58,18.44-43.99,31.96-7.23,7.89-14.16,16.05-20.75,24.47,.74-4.03,.97-8.22,.97-12.31,.01-4.1-.76-8.29-2.86-11.81-9.81,1.6-22.69,11.83-37.59,44.12-.09-.23-.18-.45-.26-.68-3.18-9.06,2.52-21.27,8.41-28.86,5.16-6.65,11.25-12.56,18.04-17.53,3.68-2.68,7.57-5.1,11.12-7.96,6.91-5.59,12.35-12.74,17.72-19.83-3.62,10.8-7.04,23.48-9.19,34.66,10.87-25.05,35.6-44.72,62.43-49.83,6.19-1.18,12.49-1.66,18.75-2.38,10.31-1.19,20.54-3.03,30.61-5.52-13.19,4.74-27.51,10.46-37.6,20.19-1.17,1.13-2.37,2.56-2.13,4.17,.42,2.86,4.47,3.12,7.27,2.39,7.61-1.97,14.78-5.49,22.48-7.14,15.59-3.34,31.66,1.26,46.93,5.82-5.66-1.03-12.94,.57-18.35,2.53-5.35,1.93-10.35,4.69-15.44,7.25,17.4,1.3,34.28,9.57,46.9,21.62Z"/><path class="k" d="M130.4,122.27h-.03c-.4-.01-.75-.26-.9-.64l-.06-.15c-.08-.19-.15-.38-.21-.57-3.35-9.54,2.52-22.02,8.56-29.8,5.21-6.72,11.35-12.68,18.24-17.72,1.39-1.01,2.83-2,4.22-2.96,2.3-1.58,4.67-3.21,6.86-4.97,6.88-5.56,12.3-12.73,17.55-19.66,.29-.39,.83-.51,1.26-.28,.43,.23,.64,.74,.48,1.2-2.88,8.6-5.52,18.04-7.53,26.83,12.26-21.95,34.91-38.59,59.64-43.3,4.65-.89,9.42-1.39,14.04-1.87,1.6-.17,3.19-.33,4.79-.52,10.27-1.19,20.52-3.03,30.48-5.5,.52-.13,1.04,.17,1.2,.68,.15,.51-.12,1.05-.62,1.23-12.75,4.58-27.2,10.28-37.24,19.97-.95,.91-2.01,2.12-1.83,3.3,.08,.53,.33,.93,.8,1.24,1.08,.71,3.23,.85,5.23,.33,3.41-.88,6.8-2.1,10.08-3.29,4.02-1.45,8.17-2.95,12.44-3.86,16.23-3.48,32.8,1.47,47.43,5.84,.51,.15,.81,.67,.69,1.19-.12,.52-.63,.85-1.15,.75-4.57-.83-11.24,.1-17.83,2.49-4.23,1.52-8.33,3.62-12.3,5.66,15.84,2.01,31.75,9.75,44.11,21.55,.34,.33,.41,.85,.16,1.25-.25,.4-.74,.58-1.19,.42-17.29-6.17-38.62-3.92-60.07,6.34-.92,.44-1.84,.9-2.76,1.35-3.41,1.69-6.94,3.43-10.69,4.51-2.04,.59-4.21,1.01-6.62,1.27-3.33,.37-6.63,.41-10.57,.37l-2.03-.03c-.5,0-.92-.38-.98-.88-.06-.5,.26-.96,.74-1.09l.15-.04c.21-.05,.43-.11,.64-.17,14.82-3.95,30.3-10.92,43.62-19.65,1.97-1.29,4.22-3.06,4.21-5.27,0-1.89-1.75-3.41-3.37-4.02-1.7-.65-3.56-.7-5.53-.76l-.85-.03c-4.29-.14-8.58-.71-12.75-1.7-.47-.11-.8-.54-.77-1.03,.03-.48,.4-.88,.88-.94,3.86-.47,7.62-2.01,10.72-4.36-4.85-2.37-10.48-2.05-14.49-1.32-3.54,.65-7.05,1.78-10.44,2.88-1.88,.61-3.83,1.24-5.78,1.79-7.53,2.1-15.3,3.04-23.11,2.79-.42-.01-.79-.29-.92-.69-.13-.4,0-.84,.33-1.1,2.18-1.73,3.8-3.47,5.51-5.3,1.16-1.25,2.37-2.54,3.79-3.87,1.04-.97,2.74-3.12,1.73-4.25-.54-.61-1.7-.65-3.43-.13-17.66,5.35-31.92,19.02-43.54,31.68-7.25,7.91-14.22,16.13-20.7,24.41-.28,.36-.78,.48-1.2,.3-.42-.19-.66-.64-.57-1.09,.64-3.5,.95-7.46,.95-12.13,0-4.17-.79-7.76-2.38-10.7-11.8,2.39-23.97,17-36.16,43.43-.16,.35-.52,.58-.91,.58Zm52.29-70.62c-4.27,5.5-8.83,10.9-14.35,15.37-2.25,1.81-4.66,3.47-6.98,5.06-1.38,.95-2.81,1.93-4.18,2.93-6.74,4.93-12.74,10.77-17.84,17.33-5.76,7.42-10.45,18.08-8.75,26.15,12.37-26.08,24.89-40.32,37.24-42.33,.41-.06,.81,.12,1.02,.47,2,3.36,3.01,7.5,3,12.32,0,3.21-.15,6.11-.44,8.76,5.85-7.33,12.05-14.58,18.48-21.6,11.81-12.86,26.32-26.75,44.44-32.24,.95-.29,3.83-1.17,5.51,.71,1.9,2.14,.19,5.13-1.85,7.04-1.38,1.29-2.56,2.56-3.7,3.78-1.2,1.29-2.36,2.53-3.7,3.76,6.72-.02,13.4-.94,19.88-2.75,1.91-.54,3.84-1.16,5.7-1.76,3.46-1.12,7.03-2.28,10.7-2.95,4.71-.87,11.51-1.17,17.16,2.27,.27,.17,.45,.45,.48,.77,.03,.32-.1,.63-.34,.84-2.39,2.08-5.22,3.67-8.24,4.68,2.57,.41,5.17,.66,7.78,.74l.84,.03c2.05,.06,4.17,.12,6.18,.89,2.31,.87,4.64,3.03,4.65,5.88,.02,3.17-2.72,5.38-5.11,6.95-11.72,7.68-25.1,14.02-38.23,18.17,1.85-.04,3.6-.15,5.35-.34,2.29-.25,4.35-.65,6.28-1.21,3.59-1.03,7.03-2.73,10.36-4.38,.93-.46,1.85-.92,2.79-1.36,20.16-9.64,40.28-12.34,57.22-7.79-12.41-10.57-27.82-17.18-42.92-18.31-.45-.03-.82-.36-.91-.8-.09-.44,.13-.89,.53-1.09,.99-.5,1.99-1.01,2.98-1.52,4.04-2.07,8.21-4.21,12.57-5.78,2.17-.79,6.55-2.2,11.31-2.72-12.54-3.57-26.14-6.54-39.34-3.71-4.14,.89-8.23,2.36-12.18,3.79-3.32,1.2-6.76,2.44-10.25,3.34-1.96,.51-4.93,.66-6.83-.6-.94-.62-1.52-1.52-1.68-2.61-.31-2.09,1.13-3.79,2.42-5.03,7.14-6.88,16.35-11.78,25.64-15.68-5.91,1.12-11.87,2.04-17.84,2.73-1.6,.18-3.2,.35-4.81,.52-4.57,.48-9.3,.98-13.87,1.85-26.71,5.09-50.93,24.42-61.7,49.25-.2,.47-.72,.71-1.21,.56s-.78-.64-.69-1.14c1.75-9.09,4.39-19.47,7.43-29.23Z"/></g><g><path class="c" d="M143.88,69.24c.01-5.95,2.98-11.83,7.76-15.38,3.5-2.59,7.74-3.91,11.69-5.75,8.04-3.74,14.99-9.77,19.82-17.2-1.69,6.43-4.44,13.27-9.5,17.58-4.93,4.2-11.43,5.94-17.36,8.54s-10.99,5.89-12.41,12.21Z"/><path class="k" d="M143.88,70.24s-.07,0-.11,0c-.51-.06-.89-.49-.89-1,.01-6.25,3.14-12.45,8.17-16.18,2.59-1.92,5.56-3.17,8.44-4.37,1.13-.47,2.3-.96,3.42-1.48,7.81-3.63,14.7-9.62,19.4-16.84,.27-.41,.79-.57,1.24-.37,.45,.2,.69,.69,.56,1.17-2.22,8.43-5.43,14.35-9.82,18.08-3.77,3.21-8.42,5.03-12.91,6.79-1.55,.61-3.16,1.23-4.69,1.91-5.33,2.34-10.46,5.35-11.83,11.52-.1,.46-.51,.78-.97,.78Zm36.53-33.98c-4.55,5.38-10.31,9.81-16.66,12.76-1.15,.54-2.34,1.03-3.49,1.52-2.9,1.21-5.63,2.36-8.02,4.13-2.67,1.98-4.75,4.74-6,7.83,2.59-2.95,6.19-4.86,9.65-6.38,1.57-.69,3.2-1.32,4.77-1.94,4.34-1.7,8.83-3.45,12.34-6.45,3.04-2.59,5.49-6.37,7.41-11.47Z"/></g><g><path class="c" d="M212.76,27.6c1.15-2.07,2.64-4.03,4.68-5.23,2.65-1.54,5.86-1.61,8.91-1.88s6.34-.92,8.36-3.22c-.35,2.81-3.44,6.08-6.02,7.24s-5.48,1.33-8.31,1.31c-1.29-.01-2.62-.06-3.82,.41-1.54,.6-2.76,.1-3.8,1.38Z"/><path class="k" d="M212.76,28.6c-.19,0-.39-.06-.56-.17-.43-.29-.57-.86-.31-1.32,1.48-2.65,3.13-4.48,5.05-5.6,2.51-1.47,5.4-1.7,8.19-1.92,.38-.03,.76-.06,1.14-.09,2.61-.23,5.83-.77,7.7-2.89,.29-.33,.76-.43,1.16-.25,.4,.18,.64,.6,.58,1.03-.39,3.21-3.73,6.74-6.6,8.03-2.85,1.27-6.01,1.42-8.73,1.39h-.23c-1.17-.01-2.27-.03-3.22,.34-.67,.26-1.27,.34-1.8,.41-.82,.11-1.19,.18-1.58,.66-.2,.24-.49,.37-.78,.37Zm19.59-8.44c-1.92,.85-4.06,1.17-5.91,1.33-.38,.03-.77,.06-1.16,.1-2.57,.21-5.22,.42-7.34,1.65-.92,.54-1.77,1.29-2.58,2.27,.28-.05,.55-.11,.83-.22,1.31-.51,2.66-.49,3.96-.48h.23c2.5,.03,5.4-.1,7.89-1.22,1.39-.62,2.97-1.95,4.06-3.43Z"/></g><g><path class="c" d="M283.66,34.39c2.38-3.88,6.66-6.53,11.2-6.92,3.5-.3,6.97,.66,10.46,1.07s7.35,.14,9.99-2.19c-1.7,3.38-5.61,7.41-9.11,8.84s-7.52,1.54-11.09,.31c-1.69-.58-3.3-1.46-5.07-1.75-2.35-.39-4.6-.94-6.37,.65Z"/><path class="k" d="M300.22,37.34c-1.85,0-3.71-.3-5.45-.9-.59-.2-1.17-.44-1.74-.67-1.08-.44-2.11-.86-3.17-1.04l-.57-.1c-2.29-.4-3.75-.58-4.96,.5-.37,.33-.93,.34-1.31,.02-.38-.32-.47-.87-.21-1.29,2.54-4.14,7.12-6.98,11.96-7.4,2.55-.22,5.07,.2,7.51,.6,1.04,.17,2.11,.35,3.15,.47,4.11,.48,7.21-.18,9.21-1.94,.36-.32,.89-.33,1.27-.04,.38,.29,.5,.81,.28,1.24-1.67,3.33-5.73,7.73-9.63,9.32-2,.82-4.18,1.23-6.35,1.23Zm-13.54-5.02c.97,0,1.97,.17,2.95,.34l.56,.1c1.29,.21,2.46,.69,3.6,1.16,.54,.22,1.08,.44,1.64,.63,3.34,1.15,7.12,1.04,10.39-.29,2.09-.85,4.56-2.88,6.45-5.16-1.98,.6-4.34,.74-7.06,.42-1.09-.13-2.19-.31-3.25-.48-2.42-.4-4.71-.78-7.01-.58-3.11,.27-6.11,1.68-8.35,3.86,.03,0,.06,0,.09,0Z"/></g><g><path class="c" d="M298.68,133.3c.66,.84,1.68,1.32,2.66,1.72,4.97,2.06,10.33,3.14,15.7,3.18-2.58,.34-5.11,1.11-7.45,2.26-.52,.25-1.05,.55-1.35,1.05-.86,1.46,.86,3.05,2.31,3.94,12.89,7.85,22.76,20.52,27.21,34.95,3.46,11.2,3.7,23.11,3.8,34.83-1.88-3.34-5.11-5.41-8.17-7.72-8.53-6.43-19.72-13.08-30.06-15.95-4.24-1.18-9-1.14-12.8,1.09-3.79,2.23-6.24,6.98-4.94,11.19,1.29,4.2,6.9,6.73,10.53,4.23,7.32,22.39,7.24,47.14-.22,69.48,2.4-13.8-1.22-28.53-9.73-39.65,3.63,11.44,2.86,24.2-2.1,35.12,.06-.6,.11-1.21,.15-1.81,1.61-20.55-2.77-41.54-12.48-59.73,6.55,5.44,13.11,10.88,19.66,16.32-1.86-12.7-12.58-22.02-22.98-29.53-10.4-7.52-21.82-15.21-26.41-27.19,.98,2.58,16.43,5.23,19.41,5.99,11.42,2.89,25.7,.55,37.21,3.02,10.32,2.21,17.28,10.78,27.5,13.13,.41,.1,.87,.17,1.21-.07,.36-.25,.45-.74,.49-1.18,.49-5.64-1.78-11.16-4.68-16.02-4.49-7.53-10.52-14.01-16.5-20.43-4.3-4.62-8.66-9.28-13.96-12.69-4.53-2.91-9.61-4.82-14.65-6.7-3.33-1.25-6.67-2.5-10.01-3.75,10.79-6.33,22.39-12.98,34.77-14.8,3.87-.57,7.9-.69,11.43-2.38,1.47-.71,2.91-1.8,3.35-3.38,.52-1.86-.54-3.85-1.98-5.14-1.76-1.57-4.04-2.4-6.27-3.2-10.98-3.93-21.88-7.86-33.42-9.57,3.65-.6,7.33-.91,11.02-.94,13.14-.14,26.33,3.24,37.72,9.81,14.59,8.41,26.14,21.98,32.11,37.72-8.92-10.97-23.96-16.34-38.02-17.86-6.24-.67-13.16-.66-18.03,3.29-2.2,1.79-3.8,5.15-2.03,7.37Z"/><path class="k" d="M295.9,278.55c-.08,0-.16,0-.25-.03-.51-.13-.83-.63-.74-1.14,2.02-11.62-.35-24.03-6.38-34.19,1.93,10.12,.7,20.87-3.56,30.24-.2,.45-.69,.68-1.17,.55-.47-.13-.78-.58-.73-1.07,.06-.59,.11-1.19,.15-1.78,1.59-20.26-2.8-41.28-12.36-59.19-.23-.42-.12-.94,.25-1.25,.37-.3,.9-.3,1.27,0l17.48,14.51c-2.85-11.01-12.64-19.36-22.03-26.14l-1.81-1.3c-10.09-7.26-20.52-14.77-24.95-26.34h0c-.2-.52,.06-1.1,.58-1.29,.51-.2,1.09,.06,1.29,.58h0c.82,1.62,12.04,3.96,15.73,4.73,1.34,.28,2.39,.5,2.99,.65,5.83,1.48,12.6,1.56,19.14,1.65,6.11,.08,12.42,.16,18.03,1.36,5.39,1.16,9.9,4,14.27,6.74,4.3,2.71,8.37,5.27,13.25,6.39,.26,.06,.39,.08,.43,.07-.02-.02,.02-.14,.05-.43,.4-4.58-1.09-9.63-4.54-15.42-4.45-7.46-10.51-13.97-16.37-20.26-4.19-4.5-8.52-9.15-13.77-12.53-4.5-2.89-9.56-4.78-14.46-6.6l-10.01-3.75c-.36-.14-.61-.47-.65-.85s.16-.75,.49-.95c9.89-5.8,22.2-13.03,35.13-14.93,.87-.13,1.75-.23,2.64-.34,3.04-.37,5.91-.71,8.51-1.95,1.08-.52,2.45-1.42,2.82-2.75,.43-1.55-.64-3.19-1.68-4.13-1.64-1.46-3.82-2.24-5.94-3l-.38-.14c-10.59-3.79-21.54-7.71-32.85-9.39-.49-.07-.85-.49-.85-.98s.35-.91,.84-.99c3.66-.6,7.42-.92,11.17-.95,13.47-.14,26.7,3.29,38.23,9.94,14.89,8.58,26.45,22.16,32.54,38.23,.17,.46,0,.98-.44,1.22s-.97,.15-1.27-.24c-7.63-9.38-21.24-15.76-37.35-17.5-5.55-.6-12.53-.79-17.29,3.07-1.69,1.37-3.28,4.21-1.88,5.97h0c.53,.68,1.44,1.09,2.25,1.42,4.81,1.99,10.11,3.07,15.33,3.11,.53,0,.96,.41,.99,.94s-.35,.98-.87,1.05c-2.48,.33-4.88,1.06-7.14,2.17-.39,.19-.77,.4-.94,.67-.43,.73,.95,1.94,1.98,2.57,13.06,7.95,23.14,20.9,27.64,35.51,3.37,10.91,3.74,22.36,3.84,35.12,0,.46-.3,.86-.74,.97-.44,.12-.91-.08-1.13-.48-1.51-2.69-3.99-4.52-6.61-6.45-.43-.32-.86-.64-1.29-.96-10.05-7.58-20.89-13.33-29.72-15.78-2.62-.73-7.67-1.57-12.03,.99-3.6,2.12-5.57,6.53-4.49,10.03,.57,1.86,2.19,3.45,4.22,4.16,1.74,.6,3.48,.44,4.78-.45,.26-.18,.59-.23,.89-.12,.3,.1,.53,.34,.63,.64,7.4,22.63,7.32,47.53-.22,70.11-.14,.42-.53,.68-.95,.68Zm-9.73-41.65c.3,0,.6,.14,.79,.39,6.65,8.69,10.38,19.64,10.64,30.61,4.54-19.19,3.85-39.55-2.07-58.38-1.63,.69-3.54,.72-5.42,.07-2.63-.91-4.72-3-5.48-5.46-1.37-4.43,.95-9.73,5.39-12.35,3.71-2.17,8.53-2.6,13.58-1.19,9.07,2.52,20.15,8.39,30.39,16.11,.42,.32,.85,.63,1.27,.95,1.83,1.35,3.71,2.74,5.26,4.46-.15-11.35-.7-21.66-3.72-31.42-4.36-14.15-14.12-26.69-26.78-34.39-2.62-1.61-3.63-3.64-2.65-5.3,.44-.73,1.15-1.14,1.78-1.44,.62-.3,1.24-.58,1.88-.83-3.47-.52-6.88-1.46-10.08-2.78-1.12-.46-2.27-1.02-3.06-2.02-2.12-2.66-.55-6.54,2.18-8.77,5.33-4.32,12.83-4.15,18.77-3.51,8.68,.94,23.88,4.02,34.8,14.09-6.29-13.27-16.81-24.78-29.49-32.09-11.22-6.47-24.04-9.82-37.21-9.68-1.44,.01-2.87,.07-4.3,.17,9.15,2,18.02,5.18,26.65,8.27l.38,.14c2.19,.79,4.67,1.68,6.6,3.4,1.55,1.38,2.96,3.73,2.28,6.16-.45,1.62-1.79,3-3.88,4.01-2.89,1.39-6.07,1.77-9.13,2.14-.86,.1-1.73,.21-2.58,.33-11.78,1.73-23.18,8.11-32.6,13.61l8.04,3.01c4.99,1.86,10.16,3.79,14.84,6.79,5.46,3.52,9.88,8.26,14.15,12.85,5.93,6.37,12.07,12.96,16.63,20.6,3.68,6.16,5.25,11.6,4.82,16.62-.03,.38-.12,1.36-.92,1.91-.75,.53-1.64,.31-2.02,.22-5.2-1.2-9.6-3.97-13.85-6.64-4.41-2.78-8.57-5.4-13.62-6.48-5.42-1.16-11.63-1.24-17.64-1.32-6.66-.09-13.55-.17-19.61-1.71-.57-.15-1.61-.36-2.91-.63-6.41-1.34-11.09-2.45-13.95-3.62,4.8,9.35,13.98,15.95,22.88,22.36l1.81,1.3c10.49,7.57,21.46,17.08,23.38,30.2,.06,.41-.14,.81-.5,1.02-.36,.2-.81,.16-1.13-.1l-15.96-13.25c7.51,15.75,11.23,33.54,10.69,50.99,2.65-9.12,2.6-19.06-.27-28.1-.15-.46,.06-.96,.49-1.19,.15-.08,.3-.11,.46-.11Z"/></g><g><path class="c" d="M315.57,221.67c-.44,2.7-.82,5.72,.72,7.98,1.52,2.21,4.39,2.97,6.51,4.61,3.43,2.66,4.53,7.27,5.41,11.51,1.99-3.37,2.68-8.27,1.54-12.02s-3.91-6.96-7.45-8.65c-1.67-.8-3.52-1.28-4.94-2.47s-2.95,.48-1.81-.97Z"/><path class="k" d="M328.22,246.77c-.05,0-.11,0-.16-.01-.41-.07-.73-.38-.82-.78-.92-4.41-1.99-8.56-5.05-10.93-.72-.56-1.55-1.02-2.43-1.5-1.57-.86-3.2-1.75-4.29-3.34-1.46-2.13-1.44-4.74-1.09-7.33-.02-.02-.03-.05-.05-.07-.41-.66,.03-1.22,.46-1.76,.28-.36,.77-.48,1.19-.3,.21,.09,.38,.25,.48,.45,.49,.05,1.04,.23,1.57,.67,.87,.73,1.96,1.17,3.12,1.64,.54,.22,1.08,.44,1.61,.69,3.77,1.8,6.75,5.26,7.97,9.26,1.21,3.97,.55,9.12-1.64,12.82-.18,.31-.51,.49-.86,.49Zm-11.87-23.57c-.29,2.22-.31,4.29,.77,5.87,.82,1.19,2.17,1.94,3.6,2.72,.91,.5,1.85,1.01,2.7,1.67,2.85,2.21,4.19,5.5,5.11,9.16,.91-2.8,1.05-6.03,.27-8.58-1.06-3.47-3.64-6.47-6.92-8.04-.49-.23-.99-.44-1.5-.64-1.25-.51-2.54-1.04-3.65-1.96-.13-.11-.26-.17-.39-.2Z"/></g><g><path class="c" d="M323.15,141.13c-2.22,.9-3.06,4.11-1.57,5.98,1.13,1.42,3.12,1.86,4.93,1.73s3.54-.74,5.33-1.03c5.22-.86,10.83,1.14,14.32,5.13-.4-2.38-2.2-4.88-3.91-6.59-5.01-4.98-12.54-7.87-19.09-5.22Z"/><path class="k" d="M346.15,153.94c-.28,0-.56-.12-.75-.34-3.26-3.72-8.53-5.61-13.4-4.8-.67,.11-1.34,.27-2.04,.43-1.09,.26-2.21,.52-3.38,.61-2.47,.17-4.57-.59-5.78-2.11-.9-1.12-1.19-2.71-.79-4.23,.4-1.53,1.44-2.76,2.77-3.3,6.35-2.56,14.27-.43,20.17,5.44,.84,.84,3.64,3.83,4.19,7.13,.07,.44-.15,.88-.56,1.07-.14,.07-.28,.1-.43,.1Zm-11.9-7.32c3.23,0,6.47,.96,9.2,2.71-.54-.77-1.18-1.54-1.91-2.26-4.05-4.03-11.2-7.76-18.01-5.01h0c-.75,.3-1.34,1.03-1.58,1.95-.24,.92-.08,1.85,.42,2.48,.78,.98,2.3,1.49,4.07,1.36,1.01-.07,2.01-.31,3.07-.56,.71-.17,1.43-.34,2.17-.46,.85-.14,1.72-.21,2.58-.21Zm-11.1-5.49h0Z"/></g><g><path class="c" d="M342.53,168.39c-.16,2.23-.28,4.63,.91,6.53,1.36,2.16,4.01,3.03,6.13,4.45,4.09,2.72,6.32,7.97,5.46,12.8,1.65-4.41,2.8-10.09,1.67-14.65-.52-2.1-1.52-4.21-3.32-5.41-1.95-1.3-4.45-1.31-6.74-1.86s-4.15,.5-4.12-1.85Z"/><path class="k" d="M355.03,193.16c-.09,0-.18-.01-.26-.04-.5-.14-.81-.63-.72-1.14,.79-4.44-1.28-9.29-5.03-11.79-.59-.39-1.22-.74-1.89-1.11-1.69-.93-3.44-1.89-4.53-3.64-1.41-2.24-1.21-5.07-1.06-7.13,.04-.54,.51-.94,1.04-.93,.54,.02,.96,.47,.96,1.01,0,.42,.07,.54,.07,.54,.12,.08,.7,.09,1.08,.1,.61,.01,1.38,.03,2.2,.23,.63,.15,1.28,.26,1.97,.37,1.74,.29,3.53,.59,5.09,1.63,1.78,1.19,3.04,3.21,3.73,6,1.44,5.79-.71,12.59-1.7,15.25-.15,.4-.53,.65-.94,.65Zm-11.6-22.22c.03,1.3,.24,2.46,.85,3.44,.82,1.31,2.27,2.1,3.8,2.95,.68,.37,1.38,.76,2.04,1.2,2.69,1.79,4.65,4.62,5.54,7.74,.52-2.66,.76-5.74,.06-8.52-.39-1.58-1.21-3.69-2.9-4.82-1.2-.8-2.71-1.05-4.31-1.32-.69-.11-1.41-.23-2.11-.4-.62-.15-1.21-.16-1.78-.17-.36,0-.78-.02-1.21-.1Z"/></g><g><path class="c" d="M316.35,89.31c3.87-2.42,8.74-3.18,13.16-2.04,4,1.03,7.45,3.49,11.19,5.25s8.25,2.8,11.92,.9c-1.53,2.62-5.01,4.88-8.03,5.17s-6.04-.45-8.92-1.41c-2.93-.97-5.78-2.18-8.52-3.6-2.17-1.13-4.3-2.4-6.64-3.1s-2.03-2.39-4.16-1.18Z"/><path class="k" d="M343.23,99.66c-2.9,0-5.69-.79-7.88-1.52-2.97-.99-5.89-2.22-8.66-3.66-.44-.23-.87-.46-1.31-.69-1.74-.93-3.38-1.81-5.16-2.34-1.12-.34-1.74-.86-2.2-1.24q-.49-.41-1.18-.02c-.48,.27-1.07,.11-1.35-.36-.28-.47-.13-1.07,.33-1.36,4.09-2.55,9.3-3.36,13.94-2.16,2.8,.72,5.33,2.11,7.78,3.45,1.17,.64,2.38,1.3,3.59,1.87,3.05,1.44,7.45,2.77,11.03,.92,.39-.2,.88-.12,1.18,.2,.31,.32,.36,.81,.14,1.19-1.7,2.91-5.48,5.34-8.8,5.66-.48,.05-.96,.07-1.44,.07Zm-23.72-10.81c.32,.26,.69,.51,1.28,.69,1.97,.59,3.78,1.56,5.53,2.49,.43,.23,.86,.46,1.29,.68,2.68,1.39,5.5,2.58,8.37,3.54,2.36,.79,5.47,1.65,8.5,1.36,1.68-.16,3.57-1.03,5.08-2.24-3.34,.38-6.74-.73-9.29-1.94-1.26-.59-2.5-1.27-3.69-1.92-2.45-1.34-4.76-2.6-7.32-3.27-3.18-.82-6.65-.58-9.75,.61Z"/></g><g><path class="c" d="M244.56,253.95c-.7,9.91,5.33,18.83,9.15,27.99,5.21,12.49,6.41,26.61,3.39,39.8-1.6-5.48-4.05-11.23-5.96-16.61-2.08-5.83-4.49-11.83-9.12-15.93-4.63-4.09-10.86-5.76-16.32-8.64-7.18-3.78-13.15-9.81-16.85-17.03-4.02,8.14-5.27,17.7-1.35,25.88-3.2-6.26-6.46-12.65-9.74-19.08-6.04-11.82-12.16-23.81-18.13-35.5-1.62-3.17-3.23-6.31-4.82-9.43,.25,.17,.51,.34,.75,.51,6.11,4.26,10.68,10.39,15.11,16.4,4.02,5.44,8.04,10.88,12.06,16.32-1.98-6.69-3.25-13.81-4.23-20.72,6.31,8.2,13.04,17.49,20.18,24.98,2.92,3.06,6,6.13,9.88,7.79,1.48,.64,3.4,.97,4.52-.18,.53-.54,.75-1.29,.93-2.03,2.36-9.58,.48-19.7-2.28-29.18s-6.41-18.78-7.66-28.57c20.07,13.07,34.24,33.42,47.16,53.61,.31,.49,.62,.97,.93,1.46-5.22-5.39-11.03-10.49-17.37-14.52-2.9-1.85-7.29-3.3-9.31-.5-.65,.91-.84,2.07-.92,3.18Z"/><path class="k" d="M257.1,322.74c-.44,0-.83-.29-.96-.72-1.03-3.54-2.44-7.23-3.8-10.81-.72-1.9-1.47-3.86-2.14-5.74-2.03-5.69-4.38-11.57-8.84-15.52-2.98-2.63-6.61-4.21-10.46-5.88-1.88-.82-3.82-1.66-5.67-2.63-6.76-3.56-12.49-9.08-16.31-15.69-3.52,8.15-3.73,16.53-.52,23.23,.24,.49,.03,1.08-.46,1.33-.49,.24-1.08,.05-1.33-.44-3.16-6.18-6.38-12.49-9.61-18.83l-19.92-39c-1.06-2.07-2.11-4.13-3.16-6.18-.21-.41-.11-.9,.23-1.2,.34-.3,.84-.33,1.22-.08l.23,.16c.18,.12,.36,.24,.53,.36,6.34,4.42,11.12,10.9,15.34,16.62l8.93,12.09c-1.09-4.54-2.03-9.67-2.9-15.75-.06-.45,.18-.89,.6-1.06,.42-.17,.9-.05,1.18,.31,1.18,1.53,2.37,3.11,3.58,4.7,5.29,6.96,10.76,14.15,16.53,20.2,2.95,3.09,5.9,6,9.55,7.56,.57,.25,2.5,.98,3.41,.04,.36-.37,.53-.98,.67-1.57,2.47-10.02,.08-20.58-2.27-28.66-.74-2.55-1.57-5.14-2.36-7.64-2.17-6.81-4.41-13.85-5.33-21.08-.05-.39,.13-.77,.46-.97,.33-.21,.75-.2,1.08,0,20.5,13.35,34.69,33.95,47.46,53.91l.93,1.46c.27,.43,.17,1-.23,1.32-.4,.32-.98,.28-1.34-.09-5.76-5.95-11.54-10.78-17.19-14.37-2.17-1.38-6.28-3.09-7.96-.76-.53,.75-.67,1.82-.73,2.67-.51,7.23,2.8,14.13,6,20.81,1.05,2.2,2.14,4.47,3.08,6.72,5.28,12.67,6.51,27.02,3.44,40.41-.1,.44-.49,.76-.95,.78h-.03Zm-48.25-60.21c.38,0,.72,.21,.89,.54,3.6,7.02,9.43,12.92,16.43,16.6,1.78,.94,3.68,1.76,5.53,2.56,3.82,1.66,7.77,3.37,10.99,6.21,4.81,4.26,7.28,10.41,9.4,16.34,.66,1.86,1.41,3.81,2.12,5.7,.91,2.38,1.84,4.82,2.66,7.24,1.96-11.87,.55-24.31-4.08-35.41-.92-2.21-2-4.46-3.04-6.63-3.31-6.91-6.73-14.06-6.19-21.81h0c.08-1.11,.28-2.53,1.1-3.69,2.39-3.32,7.24-1.95,10.66,.24,3.74,2.38,7.54,5.29,11.34,8.69-11.31-17.28-24.02-34.47-41.28-46.31,1.04,6.29,3.01,12.5,4.93,18.52,.8,2.51,1.63,5.12,2.38,7.69,2.42,8.32,4.87,19.22,2.29,29.7-.2,.82-.47,1.76-1.19,2.49-1.23,1.27-3.29,1.41-5.63,.4-3.99-1.71-7.11-4.77-10.21-8.02-5.84-6.13-11.35-13.37-16.67-20.37-.41-.54-.82-1.07-1.22-1.6,1.04,6.58,2.21,11.97,3.62,16.74,.14,.47-.08,.96-.51,1.18-.43,.22-.96,.09-1.25-.3l-12.06-16.32c-3.5-4.74-7.39-10.02-12.2-14.1,.4,.77,.79,1.55,1.19,2.32l19.92,39c1.82,3.57,3.64,7.13,5.44,10.66-.44-5.67,.82-11.78,3.74-17.7,.17-.34,.51-.55,.89-.56h0Z"/></g><g><path class="c" d="M214.07,278.76c-1.06,5.44,.32,11.85,4.99,14.83,1.35,.86,2.88,1.39,4.3,2.13,6.07,3.19,9.42,10.2,9.77,17.04,1.66-4.69-.53-10.2-2.19-14.88-.82-2.33-1.68-4.71-3.24-6.62-2.2-2.69-5.53-4.14-8.42-6.06s-5.43-2.98-5.2-6.45Z"/><path class="k" d="M233.13,313.77s-.1,0-.15-.01c-.47-.07-.83-.46-.85-.94-.36-7.09-3.98-13.45-9.23-16.21-.54-.28-1.09-.53-1.65-.78-.91-.41-1.84-.83-2.72-1.39-5.24-3.35-6.51-10.38-5.44-15.87,.1-.52,.59-.85,1.11-.8,.52,.07,.9,.53,.87,1.06-.15,2.31,1.07,3.19,3.61,4.81,.37,.24,.76,.48,1.15,.74,.78,.52,1.63,1.02,2.44,1.5,2.21,1.32,4.5,2.68,6.2,4.75,1.69,2.07,2.6,4.65,3.41,6.92l.32,.89c1.66,4.66,3.54,9.94,1.87,14.66-.14,.4-.52,.67-.94,.67Zm-18.37-30.54c.21,3.73,1.64,7.48,4.84,9.52,.76,.49,1.59,.86,2.47,1.26,.59,.27,1.18,.53,1.75,.83,3.33,1.75,6.04,4.67,7.84,8.28-.41-1.36-.89-2.71-1.35-4.01l-.32-.89c-.79-2.22-1.6-4.52-3.07-6.32-1.48-1.81-3.52-3.02-5.68-4.3-.84-.5-1.7-1.01-2.53-1.56-.38-.25-.75-.49-1.12-.72-1.03-.66-2.04-1.3-2.84-2.09Z"/></g><g><path class="c" d="M266.06,279.13c.38,2.87,1.05,6.16,3.62,7.5,.93,.49,2,.63,3.01,.93,2.93,.87,5.41,3.13,6.54,5.97,.7-3.74-.88-8.67-3.88-11.01-3.23-2.52-7.18,.13-9.29-3.39Z"/><path class="k" d="M279.23,294.53c-.41,0-.78-.25-.93-.63-1.01-2.54-3.27-4.61-5.9-5.38-.3-.09-.6-.16-.9-.23-.75-.18-1.53-.37-2.29-.76-2.88-1.5-3.69-4.85-4.15-8.25-.06-.47,.21-.92,.66-1.08,.45-.15,.94,.02,1.19,.43,.83,1.39,1.96,1.51,3.87,1.6,1.62,.08,3.46,.17,5.18,1.51,3.17,2.48,5.04,7.74,4.25,11.98-.08,.44-.44,.77-.89,.81-.03,0-.07,0-.1,0Zm-11.69-12.83c.45,1.79,1.2,3.31,2.6,4.04,.54,.28,1.17,.43,1.84,.6,.33,.08,.67,.16,.99,.26,2.04,.6,3.9,1.84,5.3,3.47-.39-2.68-1.71-5.34-3.54-6.77-1.22-.95-2.59-1.02-4.04-1.09-1.03-.05-2.13-.1-3.15-.51Z"/></g><path class="k" d="M215.49,17.45c-.31,0-.61-.14-.81-.41-.33-.45-.23-1.07,.22-1.4,3.39-2.49,7.95-3.11,11.89-1.64,.52,.19,.78,.77,.58,1.29-.19,.52-.77,.78-1.29,.58-3.27-1.22-7.19-.68-10,1.38-.18,.13-.38,.19-.59,.19Z"/><path class="k" d="M194.17,49.46c-.2,0-.4-.06-.57-.18-.45-.32-.57-.94-.25-1.39,4.74-6.81,11.68-12.01,19.54-14.65,.53-.18,1.09,.11,1.27,.63,.18,.52-.11,1.09-.63,1.27-7.46,2.5-14.04,7.44-18.54,13.9-.19,.28-.5,.43-.82,.43Z"/><path class="k" d="M253.66,22.8c-.52,0-.96-.4-1-.92-.04-.55,.37-1.03,.92-1.08,4.94-.39,9.81-1.41,14.48-3.05,.52-.18,1.09,.09,1.27,.61,.18,.52-.09,1.09-.61,1.27-4.84,1.69-9.88,2.75-14.99,3.15-.03,0-.05,0-.08,0Z"/><path class="k" d="M362.21,130.06c-.47,0-.88-.33-.98-.8-.84-4.2-3.14-8.31-6.84-12.21-3.33-3.51-7.36-6.4-11.25-9.21-.45-.32-.55-.95-.23-1.4,.32-.45,.95-.55,1.4-.23,3.97,2.85,8.07,5.81,11.53,9.45,3.96,4.18,6.44,8.62,7.35,13.19,.11,.54-.24,1.07-.79,1.18-.07,.01-.13,.02-.2,.02Z"/><path class="k" d="M331.14,66.18c-.24,0-.48-.09-.67-.26-3.17-2.9-7.06-4.9-11.26-5.8-.54-.11-.88-.65-.77-1.19,.12-.54,.65-.89,1.19-.77,4.55,.97,8.76,3.14,12.19,6.28,.41,.37,.44,1.01,.06,1.41-.2,.22-.47,.32-.74,.32Z"/><path class="k" d="M290.6,204.16c-.49,0-.92-.36-.99-.86-.28-1.88,.32-3.88,1.65-5.48s3.17-2.57,5.07-2.66c.53-.03,1.02,.4,1.04,.95s-.4,1.02-.95,1.04c-1.34,.06-2.66,.76-3.62,1.93-.96,1.17-1.4,2.59-1.21,3.92,.08,.55-.3,1.05-.84,1.13-.05,0-.1,.01-.15,.01Z"/><path class="k" d="M331.92,215.83c-.25,0-.51-.1-.7-.29-4.97-4.9-10.59-9.12-16.68-12.53-.48-.27-.65-.88-.38-1.36,.27-.48,.88-.66,1.36-.38,6.25,3.5,12.01,7.82,17.11,12.85,.39,.39,.4,1.02,0,1.41-.2,.2-.45,.3-.71,.3Z"/><path class="k" d="M309.95,268.77s-.03,0-.05,0c-.55-.03-.98-.5-.95-1.05,.52-10.33-.46-20.67-2.9-30.72-.13-.54,.2-1.08,.74-1.21,.54-.13,1.08,.2,1.21,.74,2.49,10.24,3.48,20.77,2.95,31.3-.03,.54-.47,.95-1,.95Z"/><path class="k" d="M336.06,236.65c-.51,0-.94-.38-.99-.9-.34-3.29-1.21-6.49-2.57-9.51-.23-.5,0-1.1,.5-1.32,.5-.23,1.1,0,1.32,.5,1.46,3.22,2.38,6.62,2.74,10.13,.06,.55-.34,1.04-.89,1.1-.04,0-.07,0-.1,0Z"/><path class="k" d="M278.22,259.32s-.02,0-.04,0c-.55-.02-.98-.48-.96-1.03,.15-4.24-.32-8.47-1.4-12.58-.14-.53,.18-1.08,.71-1.22,.54-.14,1.08,.18,1.22,.71,1.13,4.3,1.62,8.72,1.46,13.16-.02,.54-.46,.96-1,.96Z"/><path class="k" d="M221.16,305.41c-.11,0-.22-.02-.33-.06-5.35-1.89-9.52-6.5-10.88-12.01-.13-.54,.2-1.08,.73-1.21,.54-.14,1.08,.2,1.21,.73,1.18,4.79,4.95,8.96,9.61,10.6,.52,.18,.79,.76,.61,1.28-.14,.41-.53,.67-.94,.67Z"/><path class="k" d="M264.96,309.97h0c-.55,0-1-.45-1-1,.03-6.76-1.19-13.38-3.61-19.69-.2-.52,.06-1.09,.58-1.29,.52-.2,1.09,.06,1.29,.58,2.51,6.54,3.77,13.41,3.75,20.42,0,.55-.45,1-1,1Z"/><path class="k" d="M269.58,303.54c-.52,0-.96-.4-1-.93-.14-1.84-.52-3.66-1.14-5.4-.19-.52,.08-1.09,.61-1.28,.52-.19,1.09,.08,1.28,.61,.68,1.91,1.1,3.9,1.25,5.92,.04,.55-.37,1.03-.92,1.07-.03,0-.05,0-.08,0Z"/><path class="k" d="M288.65,303.93c-.52,0-.96-.4-1-.93-.34-4.62-1.52-9.09-3.5-13.28-.24-.5-.02-1.1,.48-1.33,.5-.24,1.1-.02,1.33,.48,2.08,4.41,3.32,9.12,3.68,13.99,.04,.55-.37,1.03-.92,1.07-.03,0-.05,0-.08,0Z"/><path class="k" d="M192.92,280.46c-.43,0-.83-.28-.96-.71-4.28-14.13-11.65-27.5-21.3-38.67-.36-.42-.31-1.05,.1-1.41,.42-.36,1.05-.32,1.41,.1,9.83,11.38,17.33,25,21.7,39.39,.16,.53-.14,1.09-.67,1.25-.1,.03-.19,.04-.29,.04Z"/><path class="k" d="M181.5,273.3c-.47,0-.89-.33-.98-.81-1.16-5.87-3.75-11.45-7.47-16.14-.34-.43-.27-1.06,.16-1.41,.43-.34,1.06-.27,1.41,.16,3.92,4.93,6.64,10.81,7.86,16.99,.11,.54-.24,1.07-.79,1.17-.07,.01-.13,.02-.2,.02Z"/><path class="k" d="M190.13,230.62c-.35,0-.7-.19-.88-.52-3.42-6.25-7.9-11.77-13.31-16.41-.42-.36-.47-.99-.11-1.41,.36-.42,.99-.47,1.41-.11,5.59,4.8,10.22,10.51,13.77,16.97,.27,.48,.09,1.09-.4,1.36-.15,.08-.32,.12-.48,.12Z"/><path class="k" d="M229.88,264.24c-.06,0-.12,0-.18-.02-.54-.1-.9-.62-.81-1.16,1.6-8.8,.31-18.06-3.62-26.09-.24-.5-.04-1.09,.46-1.34,.5-.24,1.09-.04,1.34,.46,4.12,8.41,5.46,18.11,3.79,27.33-.09,.48-.51,.82-.98,.82Z"/><path class="k" d="M262.36,242.69c-.37,0-.72-.2-.9-.56-2.49-5.05-5.74-9.67-9.66-13.73-.38-.4-.37-1.03,.03-1.41,.4-.38,1.03-.37,1.41,.03,4.06,4.2,7.43,8.99,10.01,14.23,.25,.5,.04,1.09-.45,1.34-.14,.07-.29,.1-.44,.1Z"/><path class="k" d="M216.97,168.94c-.38,0-.74-.22-.91-.58-.23-.5,0-1.1,.49-1.33,9.56-4.37,20.53-5.76,30.87-3.92,.54,.1,.91,.62,.81,1.16-.1,.54-.61,.9-1.16,.81-9.95-1.77-20.5-.43-29.69,3.77-.13,.06-.28,.09-.42,.09Z"/><path class="k" d="M251.4,132.69c-.09,0-.18-.01-.27-.04-8.69-2.45-17.94-2.74-26.76-.85-.54,.12-1.07-.23-1.19-.77-.12-.54,.23-1.07,.77-1.19,9.14-1.96,18.73-1.66,27.73,.88,.53,.15,.84,.7,.69,1.23-.12,.44-.53,.73-.96,.73Z"/><path class="k" d="M249.9,128.12c-.15,0-.29-.03-.43-.1-2.2-1.06-4.65-1.53-7.08-1.36-.58,.03-1.03-.38-1.07-.93-.04-.55,.38-1.03,.93-1.07,2.79-.19,5.58,.34,8.09,1.55,.5,.24,.71,.84,.47,1.33-.17,.36-.53,.57-.9,.57Z"/><path class="k" d="M209.38,103.5c-.34,0-.68-.18-.86-.5-.28-.48-.12-1.09,.36-1.37,5.9-3.45,12.24-6.1,18.83-7.9,.53-.14,1.08,.17,1.23,.7,.15,.53-.17,1.08-.7,1.23-6.43,1.75-12.6,4.34-18.35,7.7-.16,.09-.33,.14-.5,.14Z"/><path class="k" d="M266.86,81.21c-.44,0-.84-.29-.96-.74-.15-.53,.17-1.08,.7-1.23,5.75-1.57,11.27-4.33,15.97-7.98,.44-.34,1.07-.26,1.4,.18,.34,.44,.26,1.06-.18,1.4-4.91,3.81-10.67,6.7-16.67,8.33-.09,.02-.18,.04-.26,.04Z"/><path class="k" d="M146.87,176.86c-.39,0-.75-.22-.92-.6-6.26-14.32-4.4-31.77,4.74-44.45,.32-.45,.95-.55,1.4-.23,.45,.32,.55,.95,.23,1.4-8.74,12.12-10.51,28.79-4.53,42.48,.22,.51,0,1.1-.52,1.32-.13,.06-.27,.08-.4,.08Z"/><path class="k" d="M173.67,128.98c-.1,0-.2-.02-.3-.05-.53-.17-.82-.73-.65-1.26,8-25.03,28.43-45.81,53.32-54.24,.52-.18,1.09,.1,1.27,.63,.18,.52-.1,1.09-.63,1.27-24.3,8.23-44.24,28.52-52.05,52.95-.14,.42-.53,.7-.95,.7Z"/><path class="k" d="M172.59,148.97c-.19,0-.38-.05-.54-.16-.46-.3-.59-.92-.29-1.38,14.28-21.97,39.42-36.28,65.6-37.34,.56-.03,1.02,.41,1.04,.96,.02,.55-.41,1.02-.96,1.04-25.55,1.04-50.07,15-64.01,36.43-.19,.29-.51,.46-.84,.46Z"/><path class="k" d="M188.83,162.26c-.33,0-.65-.16-.84-.45-.3-.46-.17-1.08,.29-1.38,19.04-12.44,42.91-17.95,65.48-15.13,.55,.07,.94,.57,.87,1.12-.07,.55-.56,.94-1.12,.87-22.11-2.76-45.48,2.64-64.13,14.82-.17,.11-.36,.16-.55,.16Z"/><path class="k" d="M252.01,207.34c-.25,0-.49-.09-.68-.27-6.91-6.48-14.36-13.21-22.9-18.08-6.52-3.71-16.59-7.9-27.58-6.76-.55,.05-1.04-.34-1.1-.89-.06-.55,.34-1.04,.89-1.1,11.51-1.2,22.01,3.15,28.78,7.01,8.73,4.97,16.29,11.8,23.28,18.36,.4,.38,.42,1.01,.04,1.41-.2,.21-.46,.32-.73,.32Z"/><path class="k" d="M209.71,228.38c-.33,0-.66-.17-.85-.47-5.18-8.39-10.53-17.06-17.94-23.75-5.32-4.8-11.73-8.53-18.54-10.78-.52-.17-.81-.74-.63-1.26,.17-.52,.73-.81,1.26-.63,7.07,2.34,13.72,6.21,19.25,11.2,7.63,6.88,13.05,15.68,18.3,24.19,.29,.47,.14,1.09-.33,1.38-.16,.1-.35,.15-.52,.15Z"/><g class="f"><path class="k" d="M100.4,295.58c-5.22-3.92-8.44-21.4-10.24-35.48-1.85-.27-3.46-.86-4.69-1.78-17.05-11.48-39.22-31.71-53.8-53.1C16.25,193.93,1,179.36,1,165.91c0-16.54,11.52-21.77,20.56-23.33,1.62-3.08,3.56-6.02,5.65-8.81,.06,1.63,.15,3.27,.27,4.9,.07,1.11,.16,2.21,.27,3.31,.07,.71,.14,1.42,.23,2.13,.11,1.01,.24,2.02,.38,3.03,1.72,12.27,5.29,24.33,11.06,35.32,4.24,8.07,9.75,15.55,16.24,21.98,10.58,10.48,23.77,18.19,38.32,21.17,.93,.19,1.95,.41,2.53,1.15,.43,.55,.53,1.28,.62,1.97,.45,3.58,.91,7.16,1.36,10.74,.82,6.49,1.64,12.97,2.47,19.46,.37,2.91,.74,5.83,1.11,8.74,1.19,9.37,2.24,19.46-1.67,27.91Z"/></g><g class="f"><path class="k" d="M147.3,227.32c-13.14-1.41-26.38-7.36-35.82-16.6,1.05,3.43,2.8,6.65,5.11,9.4-.74-.88-5.77-1.14-7.04-1.47-2.33-.6-4.64-1.31-6.89-2.16-4.44-1.67-8.71-3.87-12.45-6.8-19.14-14.97-22.2-53.04,2.92-62.87-2.23,5.19-2.75,11.13-2.12,16.79,.57,5.08,2.05,10.16,5.07,14.29,3.02,4.12,7.73,7.18,12.84,7.43-2.5-5.04-2.44-12.04-1.14-17.52,9.96,22,28.87,39.79,51.44,48.39,1.32,.51,2.69,1,3.93,1.67-10.41-.33-22.25-2.99-31.62-7.42,4.57,6.21,9.88,11.89,15.77,16.87Z"/></g><g><path class="b" d="M105.59,138.3c-.15,1.51-.34,3-.52,4.46,.27-4.1-6.1-9.96-9.77-11.43-.38,4.53-3.41,11.34-3.41,11.34,0,0-.37-7.18-4.15-9.07-.38,7.56-10.96,23.05-15.12,24.19,2.27-4.92,2.64-12.1,0-20.41-3.78,3.4-6.05,15.49-8.32,19.27-2.26-4.16-5.29-10.58-2.64-18.14-10.21,7.94-7.94,26.08-10.21,29.1-8.69-9.07-9.07-18.52-4.91-27.97-3.88,2.5-7.97,8.87-10.62,12.38-.96,1.27-1.73,2.16-2.23,2.36-.59-2.66-.32-5.25,.26-7.57,.9-3.62,2.53-6.54,2.76-7.92-2.08,.72-4.08,1.81-5.96,3.11-.96,.65-1.88,1.36-2.77,2.11-5,4.18-8.81,9.35-10.36,11.6h-.01c-.48,.72-.74,1.13-.74,1.13,.56-4.95,2.29-9.75,4.69-14.26,1.62-3.08,3.56-6.02,5.65-8.81,1.32-1.76,2.7-3.46,4.1-5.09,5.83-6.78,13.45-12.07,21.84-15.17,1.49-.57,3.01-1.05,4.54-1.46,0,0,12.41-73.7,37.42-73.7,15.3,0,5.1,77.67,5.1,77.67,4.17,4.82,5.51,10.04,5.69,15.25,.08,2.36-.07,4.72-.31,7.03Z"/><path class="k" d="M51.45,168.61c-.27,0-.53-.11-.72-.31-7.3-7.62-9.45-15.95-6.51-25.35-2.09,2.19-4.15,5.05-5.8,7.34-.62,.85-1.19,1.65-1.71,2.33-1.28,1.7-2,2.42-2.66,2.69-.28,.11-.58,.09-.84-.04-.26-.14-.45-.38-.51-.67-.55-2.48-.46-5.11,.27-8.03,.53-2.13,1.29-3.98,1.9-5.48,.06-.15,.12-.3,.18-.45-1.23,.58-2.48,1.31-3.74,2.18-.89,.6-1.77,1.27-2.7,2.05-4.95,4.13-8.77,9.35-10.18,11.4-.01,.02-.02,.03-.04,.05-.45,.66-.69,1.04-.69,1.05-.25,.39-.74,.56-1.18,.41-.44-.16-.71-.59-.66-1.06,.53-4.72,2.15-9.64,4.8-14.62,1.53-2.91,3.41-5.84,5.73-8.94,1.25-1.67,2.65-3.4,4.14-5.14,5.96-6.94,13.66-12.28,22.25-15.46,1.25-.48,2.6-.92,4.01-1.32,1.35-7.71,13.7-73.9,38.3-73.9,1.62,0,3.05,.7,4.25,2.08,9.91,11.3,2.69,70.09,1.89,76.28,3.63,4.34,5.42,9.29,5.64,15.53,.07,2.12-.03,4.4-.31,7.17-.13,1.35-.3,2.69-.46,4l-.06,.48c-.07,.54-.55,.92-1.09,.87-.54-.05-.94-.52-.9-1.06,.2-3.05-4.41-7.85-7.96-9.86-.76,4.48-3.19,9.98-3.31,10.24-.19,.42-.65,.66-1.1,.58-.46-.08-.79-.47-.82-.93-.08-1.52-.67-5.27-2.39-7.26-1.67,8.25-11.24,22.09-15.61,23.29-.38,.1-.78-.02-1.03-.32-.25-.3-.31-.71-.15-1.07,2.15-4.66,2.31-11.11,.48-17.92-1.65,2.49-3.06,6.83-4.24,10.44-1,3.07-1.86,5.73-2.79,7.27-.18,.31-.53,.47-.88,.49-.36,0-.69-.21-.86-.52-2.36-4.34-4.51-9.48-3.59-15.44-4.53,5.5-5.44,13.78-6.07,19.53-.37,3.39-.64,5.83-1.51,7-.18,.23-.45,.38-.74,.4-.02,0-.04,0-.06,0Zm-4.91-29.97c.23,0,.46,.08,.65,.24,.34,.29,.44,.76,.27,1.16-4.24,9.63-3.05,18.06,3.66,25.72,.27-1.18,.46-2.94,.66-4.77,.77-6.99,1.92-17.56,9.27-23.28,.35-.27,.84-.28,1.2-.02,.36,.26,.51,.72,.36,1.14-2.08,5.94-.52,11.15,1.66,15.57,.57-1.41,1.17-3.24,1.79-5.14,1.58-4.86,3.37-10.36,5.9-12.64,.25-.23,.61-.31,.93-.22,.33,.09,.59,.34,.69,.66,2.13,6.71,2.47,13.04,1.02,18.21,4.47-4.2,11.84-15.71,12.14-21.74,.02-.34,.2-.64,.5-.81,.29-.17,.65-.18,.95-.03,2.33,1.16,3.51,3.93,4.11,6.25,.84-2.3,1.81-5.35,2.01-7.71,.03-.32,.2-.6,.47-.77,.27-.17,.6-.19,.9-.08,2.65,1.06,6.74,4.33,8.92,7.8h0c.28-2.68,.37-4.87,.31-6.9-.21-5.92-1.94-10.57-5.45-14.63-.19-.22-.27-.5-.24-.78,.08-.64,8.29-64.14-1.36-75.15-.82-.94-1.72-1.39-2.75-1.39-23.88,0-36.31,72.14-36.43,72.87-.07,.39-.35,.7-.73,.8-1.57,.42-3.06,.9-4.44,1.43-8.29,3.06-15.7,8.21-21.44,14.89-1.47,1.71-2.83,3.4-4.06,5.04-2.26,3.02-4.08,5.86-5.57,8.68-1.71,3.22-2.97,6.4-3.77,9.51,2.06-2.69,5.05-6.19,8.66-9.21,.98-.82,1.91-1.53,2.85-2.17,2.08-1.44,4.16-2.52,6.19-3.23,.33-.12,.7-.05,.97,.18,.27,.23,.4,.58,.34,.93-.12,.71-.49,1.63-.97,2.79-.58,1.43-1.31,3.22-1.81,5.2-.47,1.9-.65,3.64-.52,5.29,.2-.25,.44-.55,.72-.93,.51-.67,1.07-1.46,1.68-2.3,2.63-3.65,5.91-8.2,9.2-10.32,.17-.11,.35-.16,.54-.16Z"/></g><g><path class="k" d="M70.73,56.5s-6.24,17.57-1.13,20.41,15.31-15.87,15.31-15.87c0,0-6.8,17.01,.57,16.44s18.71-21.54,18.71-21.54l-33.45,.57Z"/><path class="k" d="M85.12,78.49c-1.64,0-2.57-.78-3.07-1.46-1.39-1.89-1.13-5.42-.42-8.73-2.81,4.15-6.55,8.8-9.72,9.72-1.03,.3-1.97,.22-2.8-.24-5.68-3.15,0-19.74,.68-21.62,.14-.39,.51-.66,.93-.67l33.45-.57c.3,0,.69,.18,.87,.48,.18,.3,.19,.68,.03,1-1.19,2.2-11.82,21.47-19.51,22.06-.15,.01-.29,.02-.42,.02Zm-.22-18.45c.14,0,.29,.03,.42,.1,.48,.23,.7,.78,.5,1.28-1.74,4.36-3.87,12.13-2.17,14.44,.23,.31,.66,.72,1.73,.63,5.16-.4,13.4-13.07,17.07-19.52l-31.02,.53c-2.23,6.54-4.43,16.84-1.36,18.55,.35,.19,.77,.22,1.28,.07,4.08-1.18,10.53-11.62,12.67-15.55,.18-.33,.52-.52,.88-.52Z"/></g><path class="k" d="M118.83,69.81c-.34,0-.67-.17-.86-.48-.29-.47-.14-1.09,.34-1.37,1.22-.74,1.97-2.26,1.94-3.97-.03-1.7-.82-3.2-2.06-3.9-2.12-1.2-4.94-.59-7.65,.13l-11.86,3.18c-.53,.14-1.08-.17-1.22-.71-.14-.53,.17-1.08,.71-1.22l11.86-3.18c3.1-.83,6.37-1.51,9.15,.06,1.86,1.05,3.04,3.2,3.08,5.61,.04,2.41-1.07,4.6-2.9,5.71-.16,.1-.34,.15-.52,.15Z"/><g><path class="i" d="M74.22,110.63c-1.18,2.45-3,4.28-5.76,4.83-10.4,2.07-2.21-16.34,.11-20.73h0c.1-.2,.19-.36,.26-.5-.07,.11-.15,.23-.25,.38-2.6,3.91-14.46,20.76-18.83,13.48-1.75-2.92-.57-6.17,1.74-9.18,4.43-5.77,13-10.67,13-10.67l10.77,1.14s2.6,13.63-1.04,21.25Z"/><path class="k" d="M66.95,116.63c-1.58,0-2.79-.55-3.6-1.63-2.01-2.69-.75-8.2,.92-12.87-3.59,4.36-8.19,8.82-11.75,8.77-1.04-.02-2.52-.44-3.63-2.29-1.78-2.96-1.17-6.43,1.8-10.3,4.5-5.86,12.94-10.73,13.3-10.93,.18-.1,.39-.15,.6-.13l10.77,1.14c.44,.05,.79,.37,.88,.81,.11,.57,2.62,14.04-1.12,21.87h0c-1.45,3-3.62,4.81-6.46,5.38-.61,.12-1.18,.18-1.71,.18Zm2.54-21.51s-.02,.05-.04,.08c-2.39,4.52-6.83,15.47-4.5,18.6,.21,.29,.87,1.17,3.31,.68,2.23-.44,3.88-1.84,5.05-4.28,2.99-6.26,1.54-17.02,1.08-19.9l-9.69-1.03c-1.48,.88-8.61,5.28-12.43,10.25-2.42,3.16-2.99,5.87-1.67,8.06,.69,1.16,1.45,1.31,1.96,1.32h.06c3.63,0,10.2-7.43,15.12-14.84,.1-.14,.17-.26,.24-.36,.28-.45,.87-.6,1.34-.34,.46,.26,.64,.84,.41,1.32-.05,.1-.11,.21-.17,.33l-.06,.12Zm4.73,15.51h0Z"/></g><g><path class="j" d="M67.33,76.34l-22.68,1.7s21.54,11.91,30.61,11.34c3.97-1.7-7.94-13.04-7.94-13.04Z"/><path class="k" d="M74.63,90.4c-9.57,0-29.59-11-30.46-11.48-.39-.21-.59-.66-.49-1.09,.09-.43,.46-.75,.9-.78l22.68-1.7c.29-.02,.56,.08,.76,.27,1.62,1.54,9.66,9.41,9.01,12.99-.14,.77-.63,1.37-1.37,1.69-.1,.05-.22,.07-.33,.08-.23,.01-.46,.02-.7,.02Zm-26.44-11.62c6.15,3.17,20.08,9.87,26.81,9.61,.06-.04,.06-.09,.07-.14,.29-1.63-3.92-6.84-8.11-10.88l-18.77,1.41Z"/></g><path class="b" d="M69.84,72.24c-.51,0-.95-.39-1-.91-.38-4.1,.04-8.34,1.22-12.29,.16-.53,.71-.83,1.24-.67,.53,.16,.83,.72,.67,1.24-1.1,3.7-1.5,7.69-1.14,11.53,.05,.55-.35,1.04-.9,1.09-.03,0-.06,0-.09,0Z"/><path class="b" d="M84.89,73.37c-.5,0-.93-.37-.99-.88-.44-3.5-.33-7.04,.31-10.51,.1-.54,.62-.9,1.17-.8,.54,.1,.9,.62,.8,1.17-.61,3.27-.7,6.6-.29,9.9,.07,.55-.32,1.05-.87,1.12-.04,0-.08,0-.12,0Z"/><g class="f"><path class="k" d="M105.59,138.3c-.15,1.51-.34,3-.52,4.46,.27-4.1-6.1-9.96-9.77-11.43-.38,4.53-3.41,11.34-3.41,11.34,0,0-.37-7.18-4.15-9.07-.38,7.56-10.96,23.05-15.12,24.19,2.27-4.92,2.64-12.1,0-20.41-3.78,3.4-6.05,15.49-8.32,19.27-2.26-4.16-5.29-10.58-2.64-18.14-10.21,7.94-7.94,26.08-10.21,29.1-8.69-9.07-9.07-18.52-4.91-27.97-3.88,2.5-7.97,8.87-10.62,12.38-.96,1.27-1.73,2.16-2.23,2.36-.59-2.66-.32-5.25,.26-7.57,.9-3.62,2.53-6.54,2.76-7.92-2.08,.72-4.08,1.81-5.96,3.11-.96,.65-1.88,1.36-2.77,2.11-5,4.18-8.81,9.35-10.36,11.6h-.01c-.48,.72-.74,1.13-.74,1.13,.56-4.95,2.29-9.75,4.69-14.26,1.62-3.08,3.56-6.02,5.65-8.81,1.32-1.76,2.7-3.46,4.1-5.09,5.83-6.78,13.45-12.07,21.84-15.17-1.05,.82-2.24,1.6-2.89,2.28-1.5,1.56-2.86,3.25-4.06,5.06-1.9,2.88-3.24,7.07-.79,9.51,1.81,1.79,4.73,1.61,7.24,1.21,4.93-.78,9.8-1.93,14.56-3.44-1.56,1.79-2.6,4.04-2.94,6.39-.11,.75-.1,1.64,.49,2.13,.81,.67,2.03,.07,2.9-.54,3.22-2.25,6.44-4.49,9.66-6.74,.63,3.8,1.27,7.6,1.9,11.4,.12,.75,.47,1.69,1.22,1.66,.38-.01,.7-.28,.95-.56,2.11-2.32,2.51-5.66,3.37-8.68,.97-3.44,2.67-6.67,4.94-9.42,.26,2.25,1.35,4.39,3.01,5.93,.32,.3,.74,.59,1.15,.45,.33-.11,.5-.45,.65-.76,.83-1.76,1.66-3.52,2.49-5.28,2.97,2.39,5.94,4.77,8.9,7.16,.08,2.36-.07,4.72-.31,7.03Z"/></g><g class="g"><path class="k" d="M68.58,94.61c-2.6,3.91-14.46,20.76-18.83,13.48-1.75-2.92-.57-6.17,1.74-9.18,.01,3.48-.34,7.41,3.9,7.18,1.52-.09,2.71-1.28,3.73-2.4,3.23-3.53,6.46-7.05,9.69-10.58-.08,.5-.15,1-.23,1.5Z"/></g><g class="g"><path class="k" d="M74.22,110.63c-1.18,2.45-3,4.28-5.76,4.83-10.4,2.07-2.21-16.34,.11-20.73-.39,2.58-.78,5.15-1.17,7.72-.25,1.65-.5,3.36-.07,4.98,.43,1.61,1.71,3.12,3.37,3.27,1.14,.1,2.53-.32,3.52-.07Z"/></g><path class="b" d="M51.33,105.14c-.5,0-.92-.37-.99-.87-.3-2.28,.89-4.67,2.89-5.82,.48-.27,1.09-.11,1.36,.37,.28,.48,.11,1.09-.37,1.36-1.29,.74-2.09,2.35-1.9,3.83,.07,.55-.31,1.05-.86,1.12-.04,0-.09,0-.13,0Z"/><path class="b" d="M66.18,112.78c-.37,0-.73-.21-.9-.56-.82-1.68-.81-3.75,.03-5.42,.25-.49,.85-.69,1.34-.44,.49,.25,.69,.85,.44,1.34-.56,1.12-.57,2.52-.02,3.64,.24,.5,.04,1.1-.46,1.34-.14,.07-.29,.1-.44,.1Z"/><g class="f"><path class="k" d="M75.81,56.55c1.87-3.04,3.77-6.11,6.25-8.68s5.66-4.62,9.19-5.13,7.44,.74,9.52,3.64c.32,.45,.34,1.37-.21,1.28-.32-3.57-1.68-8.36-5.12-9.33-2.32-.66-4.79,.27-6.9,1.45-6.64,3.72-10.75,9.41-12.73,16.76Z"/></g><g class="f"><path class="k" d="M72.36,80.93c3.01-1.92,5.65-4.43,7.72-7.34-.38,2.23-.61,4.6,.22,6.71s3.04,3.83,5.26,3.4c1.76-.34,3.02-1.84,4.11-3.26,3.63-4.78,6.94-9.81,9.89-15.04-2.1,4.48-6.78,8.83-11.2,11.04-1.28,.64-2.8,1.16-4.13,.61-1.43-.6-2.11-2.24-2.45-3.75s-.52-3.15-1.49-4.37c-1.97,4.17-5.5,7.58-9.73,9.41-.33,.91,.84,2.48,1.8,2.61Z"/></g><g class="g"><path class="k" d="M290.3,77.87c-6.67,4.01-13.54,7.71-20.56,11.07-3.92,1.88-8.02,3.67-12.24,4.65-2.82,.65-5.69,.94-8.58,.64-.63-.07-1.25-.16-1.87-.28-.41-.07-.81-.16-1.21-.25,15.12-4.03,30.84-11.23,43.88-19.77,2.24-1.47,4.68-3.43,4.66-6.11-.01-2.26-1.9-4.15-4.01-4.95-2.12-.81-4.44-.77-6.7-.85-4.23-.14-8.44-.7-12.55-1.67,4.55-.56,8.93-2.51,12.39-5.51-4.83-2.94-10.9-3.16-16.46-2.14-5.57,1.02-10.86,3.16-16.31,4.69-7.41,2.07-15.13,3-22.81,2.75,3.74-2.97,5.88-5.96,9.37-9.23,1.6-1.5,3.25-4.01,1.79-5.65-1.06-1.19-2.96-.88-4.47-.42-17.56,5.32-31.58,18.44-43.99,31.96-7.23,7.89-14.16,16.05-20.75,24.47,.74-4.03,.97-8.22,.97-12.31,.01-4.1-.76-8.29-2.86-11.81-9.81,1.6-22.69,11.83-37.59,44.12-.09-.23-.18-.45-.26-.68,.22-3.13,1.24-6.3,2.42-9.25,7.52-18.72,22-34.54,39.98-43.68-.14,4.5-.31,10.28-.45,14.78-.04,1.22,.06,2.7,1.15,3.25,1.09,.55,2.36-.26,3.27-1.07,3.51-3.14,6.27-7,9.22-10.66,12.33-15.35,28.37-27.72,46.35-35.74,3.97-1.77,9.12-3.15,12.24-.13,2.59,2.5,2.25,6.86,.59,10.06-1.31,2.53-3.13,6.02-.86,7.74,1.13,.86,2.73,.64,4.11,.3,10.42-2.59,19.98-10.01,30.65-8.79,2.32,.26,4.75,1.05,6.15,2.91,2,2.63,.91,6.99-2.08,8.38,2.73,1.31,5.8,1.7,8.63,2.76,2.83,1.06,5.62,3.11,6.18,6.09,.82,4.44-3.52,8-7.39,10.33Z"/></g><g class="g"><path class="k" d="M332.34,190.79c-.05,1.08-.23,2.3-1.12,2.92-.67,.47-1.56,.46-2.38,.4-15.95-1.07-30.67-10.04-46.65-10.46-3.36-.09-7.31,.56-8.89,3.53-1.87,3.5,.79,7.68,3.62,10.46,5.22,5.11,11.65,9.27,15.17,15.67,4.05,7.38,3.49,16.32,2.81,24.71-3.55-2.9-7.1-5.8-10.66-8.69,2.74,13.62,2.09,28.15-.02,41.88,1.61-20.55-2.77-41.54-12.48-59.73,6.55,5.44,13.11,10.88,19.66,16.32-1.86-12.7-12.58-22.02-22.98-29.53-10.4-7.52-21.82-15.21-26.41-27.19,.98,2.58,16.43,5.23,19.41,5.99,11.42,2.89,25.7,.55,37.21,3.02,10.32,2.21,17.28,10.78,27.5,13.13,.41,.1,.87,.17,1.21-.07,.36-.25,.45-.74,.49-1.18,.49-5.64-1.78-11.16-4.68-16.02-4.49-7.53-10.52-14.01-16.5-20.43-4.3-4.62-8.66-9.28-13.96-12.69-4.53-2.91-9.61-4.82-14.65-6.7-3.33-1.25-6.67-2.5-10.01-3.75,10.79-6.33,22.39-12.98,34.77-14.8,3.87-.57,7.9-.69,11.43-2.38,1.47-.71,2.91-1.8,3.35-3.38,.52-1.86-.54-3.85-1.98-5.14-1.76-1.57-4.04-2.4-6.27-3.2-10.98-3.93-21.88-7.86-33.42-9.57,3.65-.6,7.33-.91,11.02-.94,14.3,2.59,28,8.47,39.71,17.08,1.76,1.3,3.56,3.95,1.87,5.35-.52,.43-1.22,.54-1.89,.63-11.11,1.46-23.26,.63-32.47,7.01-1.31,.92-2.58,2.03-3.17,3.52-1.29,3.32,1.26,6.83,3.75,9.39,7.99,8.21,17.19,15.23,24.7,23.87,7.52,8.65,13.42,19.52,12.91,30.97Z"/></g><g class="g"><path class="k" d="M271.23,264.33c-9.28-7.82-15-20.35-26.24-25.09-1.35-.56-2.86-1.01-4.26-.59-1.72,.52-2.84,2.25-3.16,4-.33,1.76,0,3.57,.34,5.32,1.82,9.41,3.98,18.99,2.67,28.49-.11,.8-.26,1.62-.73,2.28-1.21,1.7-3.8,1.43-5.79,.77-12.98-4.27-21.62-16.25-29.34-27.53,.36,4.12,.24,8.27-.33,12.36-5.25-6.73-10.65-14.64-15.9-21.37,3.34,9.03,6.43,18.16,9.27,27.36,1.24,4,2.42,8.01,3.56,12.03l-21.69-47.53-4.07-8.92c6.11,4.26,10.68,10.39,15.11,16.4,4.02,5.44,8.04,10.88,12.06,16.32-1.98-6.69-3.25-13.81-4.23-20.72,6.31,8.2,13.04,17.49,20.18,24.98,2.92,3.06,6,6.13,9.88,7.79,1.48,.64,3.4,.97,4.52-.18,.53-.54,.75-1.29,.93-2.03,2.36-9.58,.48-19.7-2.28-29.18s-6.41-18.78-7.66-28.57c20.07,13.07,34.24,33.42,47.16,53.61Z"/></g><g class="h"><path class="d" d="M280.87,65.94c-2.11,.44-4.38,.87-6.8,1.33-1-.01-1.99,0-2.98,.02-20.34,.38-40.55,6.08-58.08,16.39-5.9,3.47-11.51,7.47-16.52,12.13-6.25,5.84-11.5,12.66-16.44,19.65-9.56,13.54-18.16,28.06-22.52,44.05-2.81-6.62-4.42-13.73-4.74-20.91-5.28,11.78-7.67,24.83-7,37.72,.17,3.35,1.49,8.43,.14,9.68-.39,.37-1.03,.4-1.99-.05-.35-.15-.73-.37-1.17-.67-3.81-6.33-25.3-46.87,24.71-82.3-2.26,1.89-9.44,24.57-6.42,31,3.4-6.43,29.86-87.31,119.81-68.04Z"/></g><g class="h"><path class="d" d="M192.43,188.78c22.68,24.57,27.59,40.06,26.08,65.76-30.99-58.58-61.99-58.58-64.63-58.58-.09-.72-.44-1.76-.99-2.9,4.13-4.41,21.78,2.03,25.52,3.82,8.77,4.2,16.2,10.87,22.18,18.53-4.45-12.78-12.49-24.29-22.94-32.89,27.61,.71,53.67,12.68,77.56,26.53,3.58,2.07,7.17,4.23,10.47,6.71,3,7.14,5.23,15.25,6.5,24.42-17.01-15.12-46.87-51.4-79.75-51.4Z"/></g><g class="g"><path class="k" d="M204.35,99.92c-3.55,3.52-7.05,7.45-10.46,11.85,1.72-3.56,6.55-8.46,10.46-11.85Z"/></g><g class="g"><path class="k" d="M201.33,171.09c-.14,.05-.29,.11-.43,.17-1.81,.75-4.1,1.52-5.52,.17,.05-.14,.11-.28,.18-.42,1.9-.05,3.83-.02,5.77,.08Z"/></g><g class="h"><path class="d" d="M309.97,170.64c-23.78-6.8-75.84-24.9-114.37,.28,1.51-3.49,4.56-6.12,7.67-8.36,11.64-8.38,25.71-13.34,40.04-14.1-19.34-2.89-38.91-4.18-58.46-3.85,9.49-17.65,28.82-27.78,48.05-33.39-5.56,1.62-12.87,.85-18.7,1.61-3.18,.41-6.35,.9-9.51,1.45-2.46,.44-7.05,2.38-9.42,1.89-.72-.15-1.23-.42-1.56-.78,36.36-17.58,70.85-20.77,100.77-1.07-7.94,1.14-70.3-5.67-103.94,27.97,49.51-11.72,79.37-5.29,119.43,28.35Z"/></g><path class="k" d="M124.62,103.99s-.09,0-.14,0c-.55-.07-.93-.58-.86-1.12,1.18-8.73,5.92-16.75,12.98-22.01,.44-.33,1.07-.24,1.4,.21,.33,.44,.24,1.07-.21,1.4-6.54,4.87-11.1,12.6-12.19,20.67-.07,.5-.5,.87-.99,.87Z"/><path class="k" d="M63.39,218.71c-.27,0-.55-.11-.74-.33-6.73-7.49-13.68-15.23-19.13-23.96-6.18-9.89-9.5-19.67-9.87-29.07-.02-.55,.41-1.02,.96-1.04,.52-.03,1.02,.41,1.04,.96,.36,9.04,3.58,18.49,9.57,28.08,5.36,8.58,12.26,16.25,18.93,23.68,.37,.41,.33,1.04-.08,1.41-.19,.17-.43,.26-.67,.26Z"/><path class="k" d="M39.78,127.83c-.21,0-.42-.06-.6-.2-.44-.33-.53-.96-.2-1.4,1.95-2.61,4.54-4.71,7.49-6.07,.5-.23,1.1-.01,1.33,.49,.23,.5,.01,1.1-.49,1.33-2.65,1.23-4.97,3.11-6.72,5.46-.2,.26-.5,.4-.8,.4Z"/><path class="k" d="M49.53,129.66c-.23,0-.46-.08-.65-.24-.42-.36-.47-.99-.12-1.41l4.17-4.91c.36-.42,.99-.47,1.41-.12,.42,.36,.47,.99,.12,1.41l-4.17,4.91c-.2,.23-.48,.35-.76,.35Z"/><path class="k" d="M49.99,148.21h0c-.55,0-1-.45-.99-1.01,.03-3.92,.91-7.88,2.57-11.43,.23-.5,.83-.72,1.33-.48,.5,.23,.72,.83,.48,1.33-1.54,3.3-2.36,6.96-2.38,10.6,0,.55-.45,.99-1,.99Z"/><path class="k" d="M64.63,130.04c-.12,0-.24-.02-.36-.07-.52-.2-.77-.77-.58-1.29l2.6-6.82c.2-.52,.77-.78,1.29-.58,.52,.2,.77,.77,.58,1.29l-2.6,6.82c-.15,.4-.53,.64-.93,.64Z"/><path class="k" d="M79.52,133.48s-.1,0-.15-.01c-.55-.08-.92-.59-.84-1.14,.36-2.43,.44-4.9,.24-7.34-.05-.55,.36-1.03,.91-1.08,.55-.05,1.03,.36,1.08,.91,.22,2.59,.13,5.22-.25,7.8-.07,.5-.5,.85-.99,.85Z"/><path class="k" d="M99.1,125.53c-.55,0-1-.45-1-1,0-1.67-.62-3.36-1.69-4.65-.35-.42-.3-1.06,.13-1.41,.42-.36,1.06-.29,1.41,.13,1.38,1.66,2.14,3.76,2.15,5.92,0,.55-.44,1-1,1h0Z"/><path class="k" d="M80.17,118.35c-.09,0-.18-.01-.27-.04-.53-.15-.84-.7-.69-1.23,.53-1.87,.78-3.81,.75-5.76,0-.55,.43-1.01,.99-1.01,.59-.03,1.01,.43,1.01,.99,.03,2.14-.25,4.27-.82,6.33-.12,.44-.53,.73-.96,.73Z"/><path class="k" d="M90.01,117.6c-.16,0-.33-.04-.48-.12-.48-.26-.66-.87-.4-1.36,.96-1.76,1.31-3.81,.99-5.79-.09-.55,.28-1.06,.83-1.15,.54-.09,1.06,.28,1.15,.83,.39,2.41-.04,4.92-1.21,7.06-.18,.33-.52,.52-.88,.52Z"/><path class="k" d="M30.73,140.66c-.09,0-.17-.01-.26-.03-.53-.14-.85-.69-.71-1.22,.83-3.12,2.61-6.04,5-8.21,.41-.37,1.04-.34,1.41,.07,.37,.41,.34,1.04-.07,1.41-2.11,1.92-3.68,4.5-4.42,7.25-.12,.45-.52,.74-.96,.74Z"/><path class="k" d="M49.56,157.66c-.55,0-1-.45-1-1v-4.91c0-.55,.45-1,1-1s1,.45,1,1v4.91c0,.55-.45,1-1,1Z"/><path class="k" d="M79.45,144.81s-.1,0-.15-.01c-.55-.08-.92-.59-.84-1.14l.69-4.54c.08-.55,.58-.92,1.14-.84,.55,.08,.92,.59,.84,1.14l-.69,4.54c-.08,.5-.5,.85-.99,.85Z"/><path class="k" d="M91.14,132.71c-.55,0-1-.45-1-1,0-2.09-.25-4.17-.73-6.2-.13-.54,.21-1.08,.74-1.2,.53-.13,1.08,.21,1.2,.74,.51,2.18,.78,4.41,.78,6.65,0,.55-.45,1-1,1h0Z"/><path class="k" d="M97.17,105.5c-.55,0-.99-.44-1-.99-.03-2.32,.12-4.66,.44-6.95,.08-.55,.57-.94,1.13-.85,.55,.08,.93,.58,.85,1.13-.31,2.19-.45,4.43-.42,6.65,0,.55-.43,1.01-.99,1.01h-.01Z"/><path class="k" d="M32.63,195.79c-.36,0-.7-.19-.88-.53l-5-9.4c-.26-.49-.07-1.09,.41-1.35,.49-.26,1.09-.07,1.35,.41l5,9.4c.26,.49,.07,1.09-.41,1.35-.15,.08-.31,.12-.47,.12Z"/><path class="k" d="M39.36,197.72c-.34,0-.67-.17-.86-.49l-3.4-5.67c-.28-.47-.13-1.09,.34-1.37,.47-.29,1.09-.13,1.37,.34l3.4,5.67c.28,.47,.13,1.09-.34,1.37-.16,.1-.34,.14-.51,.14Z"/><path class="k" d="M45.03,215.86c-.32,0-.63-.15-.82-.43l-6.8-9.83c-.31-.45-.2-1.08,.25-1.39,.45-.32,1.08-.2,1.39,.25l6.8,9.83c.31,.45,.2,1.08-.25,1.39-.17,.12-.37,.18-.57,.18Z"/><path class="k" d="M56.75,226.06c-.29,0-.58-.13-.78-.38l-4.53-5.67c-.34-.43-.27-1.06,.16-1.41,.43-.35,1.06-.27,1.41,.16l4.53,5.67c.34,.43,.27,1.06-.16,1.41-.18,.15-.4,.22-.62,.22Z"/><path class="k" d="M72.98,235.91c-.22,0-.45-.08-.64-.23l-4.54-3.77c-.42-.35-.48-.98-.13-1.41,.35-.42,.98-.49,1.41-.13l4.54,3.77c.42,.35,.48,.98,.13,1.41-.2,.24-.48,.36-.77,.36Z"/><path class="k" d="M61.75,199.92c-.31,0-.61-.14-.8-.4l-4.37-5.89c-.33-.44-.24-1.07,.21-1.4,.44-.33,1.07-.24,1.4,.21l4.37,5.89c.33,.44,.24,1.07-.21,1.4-.18,.13-.39,.2-.59,.2Z"/><path class="k" d="M53.71,187.52c-.28,0-.55-.12-.75-.34-1.63-1.85-2.86-4.08-3.56-6.44-.16-.53,.14-1.09,.67-1.24,.54-.16,1.09,.15,1.24,.67,.62,2.09,1.71,4.06,3.14,5.69,.37,.42,.32,1.05-.09,1.41-.19,.17-.43,.25-.66,.25Z"/><path class="k" d="M67.7,189.03c-.31,0-.62-.15-.82-.42-1.97-2.77-3.66-5.76-5.02-8.87-.22-.51,0-1.1,.52-1.32,.51-.22,1.1,.01,1.32,.52,1.31,2.99,2.93,5.85,4.82,8.51,.32,.45,.21,1.07-.24,1.39-.18,.12-.38,.18-.58,.18Z"/><path class="k" d="M78.28,210.58c-.25,0-.5-.09-.69-.28-2.13-2.04-3.86-4.43-5.15-7.08-.24-.5-.03-1.1,.46-1.34,.5-.24,1.1-.03,1.34,.46,1.18,2.44,2.77,4.63,4.73,6.51,.4,.38,.41,1.02,.03,1.41-.2,.21-.46,.31-.72,.31Z"/><path class="k" d="M80.56,224.17c-.32,0-.64-.16-.83-.45-1.5-2.25-3.24-4.36-5.17-6.26-.39-.39-.4-1.02-.01-1.41,.39-.39,1.02-.4,1.41-.01,2.03,2,3.86,4.21,5.43,6.57,.31,.46,.18,1.08-.28,1.39-.17,.11-.36,.17-.55,.17Z"/><path class="k" d="M88.87,233.25c-.29,0-.58-.12-.78-.37l-3.4-4.16c-.35-.43-.29-1.06,.14-1.41,.43-.35,1.06-.29,1.41,.14l3.4,4.16c.35,.43,.29,1.06-.14,1.41-.19,.15-.41,.23-.63,.23Z"/><path class="k" d="M107.81,212.37c-.15,0-.3-.03-.44-.1-10.07-4.98-18.33-13.28-23.26-23.38-.24-.5-.04-1.1,.46-1.34,.49-.24,1.09-.04,1.34,.46,4.74,9.7,12.68,17.68,22.35,22.47,.5,.25,.7,.84,.45,1.34-.17,.35-.53,.56-.9,.56Z"/><path class="k" d="M124.01,212.84c-.26,0-.53-.1-.72-.31-5.58-5.82-10.59-12.23-14.88-19.05-.29-.47-.15-1.08,.31-1.38,.47-.29,1.09-.16,1.38,.31,4.22,6.7,9.15,13.01,14.63,18.73,.38,.4,.37,1.03-.03,1.41-.19,.19-.44,.28-.69,.28Z"/><path class="k" d="M137.25,202.26c-.26,0-.52-.1-.71-.3-5.51-5.62-10.74-11.64-15.54-17.88-.34-.44-.25-1.07,.18-1.4,.44-.34,1.07-.25,1.4,.18,4.75,6.18,9.92,12.14,15.38,17.7,.39,.39,.38,1.03-.01,1.41-.19,.19-.45,.29-.7,.29Z"/><path class="k" d="M14.79,184.49c-.35,0-.69-.18-.87-.51l-2.98-5.31c-.27-.48-.1-1.09,.38-1.36,.48-.27,1.09-.1,1.36,.38l2.98,5.31c.27,.48,.1,1.09-.38,1.36-.15,.09-.32,.13-.49,.13Z"/><path class="k" d="M6.92,161.42c-.48,0-.9-.34-.98-.83-.39-2.18,.18-4.56,1.56-6.53,1.38-1.97,3.42-3.32,5.6-3.7,.54-.1,1.06,.27,1.16,.81,.1,.54-.27,1.06-.81,1.16-1.67,.29-3.24,1.34-4.31,2.88-1.07,1.54-1.52,3.37-1.23,5.04,.1,.54-.27,1.06-.81,1.16-.06,.01-.12,.02-.17,.02Z"/><path class="k" d="M99.75,282.4c-.44,0-.84-.29-.96-.73-2.86-10.17-4.48-20.69-4.84-31.25-.02-.55,.41-1.01,.97-1.03,.52-.04,1.01,.41,1.03,.97,.35,10.4,1.95,20.76,4.76,30.78,.15,.53-.16,1.08-.69,1.23-.09,.03-.18,.04-.27,.04Z"/><path class="b" d="M204.19,52.63c-.25,0-.51-.1-.7-.29-.39-.39-.39-1.02,0-1.41,7.7-7.76,17.88-12.96,28.67-14.67,.55-.08,1.06,.29,1.14,.83,.09,.55-.29,1.06-.83,1.14-10.38,1.64-20.16,6.64-27.56,14.1-.2,.2-.45,.3-.71,.3Z"/><path class="b" d="M146.04,87.76c-.22,0-.44-.07-.62-.22-.43-.35-.5-.98-.15-1.41,2.57-3.2,5.65-5.92,9.16-8.06,.47-.29,1.09-.14,1.37,.33,.29,.47,.14,1.09-.33,1.38-3.3,2.02-6.21,4.58-8.64,7.6-.2,.25-.49,.37-.78,.37Z"/><path class="b" d="M297.18,74.18c-.27,0-.53-.11-.73-.32-.38-.4-.36-1.04,.05-1.41,1.17-1.09,2.49-2.33,2.97-3.86,.39-1.24-.02-2.93-1.16-3.35-.52-.19-.79-.76-.6-1.28,.19-.52,.77-.79,1.28-.6,2.27,.83,3.07,3.68,2.38,5.83-.64,2.02-2.23,3.51-3.51,4.71-.19,.18-.44,.27-.68,.27Z"/><path class="b" d="M296.91,47.63c-.13,0-.27-.03-.4-.08-4.06-1.78-8.66-2.12-12.93-.94-.53,.15-1.08-.16-1.23-.7-.15-.53,.17-1.08,.7-1.23,4.72-1.3,9.79-.94,14.27,1.03,.51,.22,.74,.81,.51,1.32-.17,.38-.53,.6-.92,.6Z"/><path class="b" d="M302.14,34.62c-1.22,0-2.44-.21-3.59-.62-.52-.19-.79-.76-.6-1.28,.19-.52,.76-.79,1.28-.6,1.71,.62,3.61,.67,5.35,.15,.54-.16,1.09,.15,1.24,.67,.16,.53-.14,1.09-.67,1.24-.97,.29-1.99,.43-3,.43Z"/><path class="b" d="M329.79,90.41c-.25,0-.5-.09-.69-.28-.89-.85-2.31-1.13-3.46-.68-.51,.2-1.09-.05-1.3-.56-.2-.51,.05-1.09,.56-1.3,1.87-.74,4.11-.3,5.57,1.09,.4,.38,.42,1.01,.03,1.41-.2,.21-.46,.31-.72,.31Z"/><path class="b" d="M340,124.4c-.4,0-.78-.24-.93-.64-2.24-5.77-6.67-10.73-12.16-13.6-.49-.26-.68-.86-.42-1.35,.26-.49,.86-.68,1.35-.42,5.9,3.09,10.68,8.43,13.09,14.65,.2,.51-.05,1.09-.57,1.29-.12,.05-.24,.07-.36,.07Z"/><path class="b" d="M281.55,128.81c-.32,0-.63-.15-.83-.44-.31-.46-.19-1.08,.26-1.39,4.04-2.75,8.76-4.32,13.64-4.54,.56-.02,1.02,.4,1.04,.95,.02,.55-.4,1.02-.95,1.04-4.45,.2-8.92,1.69-12.6,4.19-.17,.12-.37,.17-.56,.17Z"/><path class="b" d="M335.13,186.21c-.43,0-.84-.29-.96-.73-1.93-6.78-4.71-13.31-8.25-19.4-.28-.48-.12-1.09,.36-1.37,.48-.28,1.09-.12,1.37,.36,3.63,6.24,6.47,12.92,8.45,19.86,.15,.53-.16,1.08-.69,1.24-.09,.03-.18,.04-.28,.04Z"/><path class="b" d="M328.68,179.95c-.44,0-.85-.3-.96-.74-.57-2.12-1.58-4.15-2.93-5.88-.34-.44-.26-1.06,.17-1.4,.43-.34,1.06-.26,1.4,.17,1.52,1.94,2.65,4.22,3.29,6.6,.14,.53-.17,1.08-.71,1.22-.09,.02-.17,.03-.26,.03Z"/><path class="b" d="M282.32,186.15c-7.83,0-15.69-1.55-22.92-4.54-.51-.21-.75-.8-.54-1.31,.21-.51,.8-.75,1.31-.54,7.89,3.26,16.56,4.75,25.09,4.31,.53-.03,1.02,.4,1.05,.95,.03,.55-.4,1.02-.95,1.05-1.01,.05-2.02,.08-3.04,.08Z"/><path class="b" d="M338.87,205.47c-.48,0-.9-.35-.99-.83l-1.14-6.8c-.09-.54,.28-1.06,.82-1.15,.55-.09,1.06,.28,1.15,.82l1.14,6.8c.09,.54-.28,1.06-.82,1.15-.06,0-.11,.01-.17,.01Z"/><path class="b" d="M322.4,232.21c-.13,0-.27-.03-.4-.09-2.34-1.04-4.2-3.11-4.99-5.54-.17-.53,.12-1.09,.64-1.26,.52-.17,1.09,.12,1.26,.64,.62,1.9,2.07,3.52,3.9,4.33,.5,.22,.73,.81,.51,1.32-.17,.37-.53,.59-.92,.59Z"/><path class="b" d="M217.29,24.92c-.3,0-.6-.14-.8-.39-.33-.44-.25-1.07,.19-1.4,1.44-1.1,3.23-1.79,5.04-1.95,.57-.04,1.04,.36,1.08,.91,.05,.55-.36,1.04-.91,1.08-1.44,.13-2.86,.68-4,1.55-.18,.14-.39,.2-.61,.2Z"/><path class="b" d="M150.61,58.04c-.13,0-.26-.02-.38-.08-.51-.21-.75-.8-.54-1.31,.91-2.2,2.68-4.02,4.85-4.99,.5-.23,1.09,0,1.32,.5,.23,.5,0,1.1-.5,1.32-1.71,.77-3.1,2.2-3.82,3.93-.16,.38-.53,.62-.92,.62Z"/><path class="b" d="M182.07,83.54c-.2,0-.41-.06-.58-.19-.45-.32-.55-.95-.23-1.4,2.92-4.05,6.11-7.98,9.49-11.67,.37-.41,1-.43,1.41-.06,.41,.37,.43,1.01,.06,1.41-3.33,3.63-6.47,7.5-9.34,11.49-.2,.27-.5,.42-.81,.42Z"/><path class="b" d="M248.68,239.79c-.38,0-.73-.21-.91-.57-1.27-2.69-3.17-5.11-5.48-6.98-.59-.48-1.2-.92-1.82-1.37-1.47-1.07-2.99-2.17-4.16-3.68-.34-.44-.26-1.07,.18-1.4,.44-.34,1.07-.26,1.4,.18,.99,1.28,2.33,2.25,3.75,3.28,.64,.47,1.29,.94,1.91,1.43,2.54,2.06,4.63,4.72,6.03,7.68,.24,.5,.02,1.09-.48,1.33-.14,.07-.28,.1-.43,.1Z"/><path class="b" d="M240.91,263.25c-.42,0-.82-.27-.95-.7-.99-3.14-2.23-7.04-1.08-10.77,.62-2.02,1.94-3.92,3.91-5.65,.5-.44,2.03-1.78,3.81-1.46,.37,.07,.71,.2,1.01,.31,.29,.11,.66,.25,.8,.2,.51-.2,1.09,.06,1.29,.58,.2,.52-.06,1.09-.58,1.29-.86,.33-1.65,.02-2.24-.2-.24-.09-.46-.18-.64-.21-.56-.1-1.25,.22-2.13,1-1.69,1.49-2.81,3.08-3.32,4.74-.9,2.9-.04,6.05,1.07,9.58,.17,.53-.12,1.09-.65,1.26-.1,.03-.2,.05-.3,.05Z"/><path class="b" d="M255.3,300.14c-.45,0-.85-.3-.97-.75-1.21-4.77-2.83-9.48-4.83-13.99-.22-.5,0-1.1,.51-1.32,.51-.22,1.09,0,1.32,.51,2.04,4.61,3.7,9.43,4.94,14.31,.13,.54-.19,1.08-.72,1.21-.08,.02-.17,.03-.25,.03Z"/><path class="b" d="M234.31,281.64c-.08,0-.17,0-.25-.03-4.23-1.09-8.22-3.17-11.53-6.03-.42-.36-.46-.99-.1-1.41,.36-.42,.99-.46,1.41-.1,3.07,2.66,6.78,4.6,10.71,5.61,.53,.14,.86,.68,.72,1.22-.12,.45-.52,.75-.97,.75Z"/><path class="b" d="M197.69,265.01c-.4,0-.78-.24-.93-.64-2.03-5.26-4.77-10.22-8.12-14.76-.33-.44-.24-1.07,.21-1.4,.44-.33,1.07-.24,1.4,.21,3.46,4.68,6.28,9.8,8.38,15.23,.2,.51-.06,1.09-.57,1.29-.12,.05-.24,.07-.36,.07Z"/><path class="b" d="M212.75,260.16c-.17,0-.34-.04-.5-.14-2.62-1.53-4.92-3.51-6.82-5.88-.35-.43-.28-1.06,.15-1.41,.43-.34,1.06-.28,1.41,.15,1.75,2.18,3.86,4,6.27,5.4,.48,.28,.64,.89,.36,1.37-.19,.32-.52,.5-.86,.5Z"/><path class="b" d="M222.66,293.91c-.11,0-.23-.02-.34-.06-2.36-.86-4.35-2.53-5.62-4.7-.28-.48-.12-1.09,.36-1.37,.48-.28,1.09-.12,1.37,.36,1.01,1.74,2.68,3.13,4.58,3.82,.52,.19,.79,.76,.6,1.28-.15,.41-.53,.66-.94,.66Z"/><path class="b" d="M276.23,285.98c-.31,0-.62-.15-.82-.42-.53-.75-1.44-1.26-2.36-1.32-.55-.04-.97-.52-.93-1.07,.04-.55,.51-.95,1.07-.93,1.52,.11,2.96,.91,3.85,2.16,.32,.45,.21,1.08-.23,1.39-.18,.12-.38,.19-.58,.19Z"/></g><path class="k" d="M129.33,146.7c-.52,0-.96-.41-1-.93-.74-11.13,3.95-22.69,12.24-30.15,.41-.37,1.04-.34,1.41,.07,.37,.41,.34,1.04-.07,1.41-7.85,7.06-12.29,18-11.58,28.53,.04,.55-.38,1.03-.93,1.06-.02,0-.04,0-.07,0Z"/><path class="k" d="M147.16,100.58c-.14,0-.29-.03-.43-.1-.5-.24-.71-.84-.47-1.33,2.62-5.46,6.94-10.14,12.17-13.19,.48-.28,1.09-.12,1.37,.36,.28,.48,.12,1.09-.36,1.37-4.89,2.85-8.93,7.23-11.38,12.33-.17,.36-.53,.57-.9,.57Z"/></g></g></g></svg>